<svg viewBox="50 225.9394 330 60.1212" width="5000" height="910.9272727272728" xmlns="http://www.w3.org/2000/svg" xmlns:xlink="http://www.w3.org/1999/xlink" preserveAspectRatio="none"><defs></defs><style>.aIptOCySncolors-3 {fill:#161616;fill-opacity:1;}.aIptOCySncolors-4 {fill:#353535;fill-opacity:1;}.aIptOCySncolors-5 {fill:#5F5F5F;fill-opacity:1;}.aIptOCySncolors-6 {fill:#949494;fill-opacity:1;}.aIptOCySncolors-7 {fill:#B2B2B2;fill-opacity:1;}.companyName {fill:#E3E3E3;fill-opacity:1;}.icon1 {fill:#E3E3E3;fill-opacity:1;}.icon2 {fill:#434343;fill-opacity:1;}.icon3 {fill:#808080;fill-opacity:1;}.icon3-str {stroke:#808080;stroke-opacity:1;}</style><g opacity="1" transform="rotate(0 50 225.9394)">
<svg width="60.1212" height="60.1212" x="50" y="225.9394" version="1.1" preserveAspectRatio="none" viewBox="1.9999998807907104 1.9999998807907104 60.000003814697266 60.000003814697266">
  <g transform="matrix(1 0 0 1 0 0)" class="icon1"><title>nature-wood-log-wooden-construction and tools </title><g data-name="OUT LINE"><path d="M61,2H3A.99974.99974,0,0,0,2,3V19a.99974.99974,0,0,0,1,1H61a.99974.99974,0,0,0,1-1V3A.99974.99974,0,0,0,61,2ZM4,4H9.54852A15.09237,15.09237,0,0,0,4,9.54846ZM18.18427,18A2.99507,2.99507,0,0,1,21,16H38V14H21a5.00837,5.00837,0,0,0-4.89893,4H13.0799A7.005,7.005,0,0,1,20,12h9V10H20a9.01045,9.01045,0,0,0-8.941,8H9.05066A11.01125,11.01125,0,0,1,20,8H36V6H20A13.00868,13.00868,0,0,0,7.05066,18H4V17A13.01474,13.01474,0,0,1,17,4H60V6H38V8H60v2H50v2H60v6Z"></path><path d="M61,23H3a.99974.99974,0,0,0-1,1V40a.99974.99974,0,0,0,1,1H61a.99974.99974,0,0,0,1-1V24A.99974.99974,0,0,0,61,23ZM4,39V37H23V35H4V29H9V27H4V25H39a7,7,0,0,1,0,14Zm40.64441,0a9.069,9.069,0,0,0,1.8338-2H54V35H47.47491a8.93987,8.93987,0,0,0-2.8305-10H60v2H58v2h2v2H50v2H60v2H56v2h4v2Z"></path><path d="M61,44H3a.99974.99974,0,0,0-1,1V61a.99974.99974,0,0,0,1,1H61a.99974.99974,0,0,0,1-1V45A.99974.99974,0,0,0,61,44ZM4,60V58h6V56H4V46H41.81573A2.99507,2.99507,0,0,1,39,48H28v2H39a5.00837,5.00837,0,0,0,4.89893-4H46.9201A7.005,7.005,0,0,1,40,52H37v2h3a9.01045,9.01045,0,0,0,8.941-8h2.0083A11.01125,11.01125,0,0,1,40,56H12v2H40A13.00868,13.00868,0,0,0,52.94934,46h3A15.00709,15.00709,0,0,1,41,60ZM57.94934,46H60a17.88893,17.88893,0,0,1-6.6955,14H48.983A17.00718,17.00718,0,0,0,57.94934,46ZM60,60H56.27716A19.87729,19.87729,0,0,0,60,54.7453Z"></path><rect x="31" y="10" width="17" height="2"></rect><rect x="40" y="14" width="18" height="2"></rect><rect x="49" y="27" width="7" height="2"></rect><path d="M25,32a3.00328,3.00328,0,0,1,3-3h1V27H28a5.00588,5.00588,0,0,0-5,5v1h2Z"></path><path d="M35,27H31v2h4a3,3,0,0,1,0,6H33v2h2a5,5,0,0,0,0-10Z"></path><rect x="27" y="31" width="9" height="2"></rect><rect x="25" y="35" width="6" height="2"></rect><rect x="6" y="31" width="15" height="2"></rect><rect x="11" y="27" width="11" height="2"></rect><rect x="5" y="48" width="18" height="2"></rect><rect x="6" y="52" width="9" height="2"></rect><rect x="17" y="52" width="18" height="2"></rect></g></g>
</svg>
</g><g opacity="1" transform="rotate(0 126.1536 235.9596)">
<svg width="253.8464" height="40.0808" x="126.1536" y="235.9596" version="1.1" preserveAspectRatio="none" viewBox="2.4 -31.64 202.92 32.04">
  <g transform="matrix(1 0 0 1 0 0)" class="companyName"><path id="id-D6z1nYkh8" d="M18.04-31.64Q23.64-31.64 27.92-28.08L27.92-28.08Q28.28-27.80 28.28-27.28L28.28-27.28Q28.28-26.80 27.96-26.42Q27.64-26.04 27.08-26.04L27.08-26.04Q26.64-26.04 26.08-26.52L26.08-26.52Q23.04-29.24 18.04-29.24L18.04-29.24Q14.52-29.24 11.46-27.36Q8.40-25.48 6.60-22.34Q4.80-19.20 4.80-15.64L4.80-15.64Q4.80-11.96 6.58-8.82Q8.36-5.68 11.42-3.84Q14.48-2 18.04-2L18.04-2Q22.76-2 26.32-4.92L26.32-4.92Q26.60-5.12 26.92-5.12L26.92-5.12Q27.40-5.12 27.78-4.76Q28.16-4.40 28.16-3.88L28.16-3.88Q28.16-3.36 27.88-3.04L27.88-3.04Q24.44 0.40 18.04 0.40L18.04 0.40Q13.84 0.40 10.24-1.78Q6.64-3.96 4.52-7.66Q2.40-11.36 2.40-15.64L2.40-15.64Q2.40-19.92 4.50-23.60Q6.60-27.28 10.18-29.46Q13.76-31.64 18.04-31.64L18.04-31.64Z M53.52-2.16Q54.04-2.16 54.38-1.86Q54.72-1.56 54.72-1.08L54.72-1.08Q54.72-0.60 54.38-0.30Q54.04 0 53.52 0L53.52 0L35.88 0Q35.40 0 35.04-0.34Q34.68-0.68 34.68-1.20L34.68-1.20L34.68-30.04Q34.68-30.56 35.04-30.90Q35.40-31.24 35.88-31.24L35.88-31.24Q36.40-31.24 36.74-30.90Q37.08-30.56 37.08-30.04L37.08-30.04L37.08-2.16L53.52-2.16Z M59.72-30.04Q59.72-30.56 60.06-30.90Q60.40-31.24 60.92-31.24L60.92-31.24Q61.44-31.24 61.78-30.90Q62.12-30.56 62.12-30.04L62.12-30.04L62.12-1.20Q62.12-0.68 61.78-0.34Q61.44 0 60.92 0L60.92 0Q60.40 0 60.06-0.34Q59.72-0.68 59.72-1.20L59.72-1.20L59.72-30.04Z M83.32-16.84Q83.84-16.84 84.18-16.50Q84.52-16.16 84.52-15.64L84.52-15.64Q84.52-15.12 84.18-14.76Q83.84-14.40 83.32-14.40L83.32-14.40L70.08-14.40L70.08-1.20Q70.08-0.68 69.74-0.34Q69.40 0 68.88 0L68.88 0Q68.36 0 68.02-0.34Q67.68-0.68 67.68-1.20L67.68-1.20L67.68-30.04Q67.68-30.56 68.02-30.90Q68.36-31.24 68.88-31.24L68.88-31.24L88.12-31.24Q88.60-31.24 88.96-30.90Q89.32-30.56 89.32-30.04L89.32-30.04Q89.32-29.56 88.96-29.20Q88.60-28.84 88.12-28.84L88.12-28.84L70.08-28.84L70.08-16.84L83.32-16.84Z M108.32-16.84Q108.84-16.84 109.18-16.50Q109.52-16.16 109.52-15.64L109.52-15.64Q109.52-15.12 109.18-14.76Q108.84-14.40 108.32-14.40L108.32-14.40L95.08-14.40L95.08-1.20Q95.08-0.68 94.74-0.34Q94.40 0 93.88 0L93.88 0Q93.36 0 93.02-0.34Q92.68-0.68 92.68-1.20L92.68-1.20L92.68-30.04Q92.68-30.56 93.02-30.90Q93.36-31.24 93.88-31.24L93.88-31.24L113.12-31.24Q113.60-31.24 113.96-30.90Q114.32-30.56 114.32-30.04L114.32-30.04Q114.32-29.56 113.96-29.20Q113.60-28.84 113.12-28.84L113.12-28.84L95.08-28.84L95.08-16.84L108.32-16.84Z M134.56-31.64Q139.04-31.64 142.70-29.54Q146.36-27.44 148.46-23.78Q150.56-20.12 150.56-15.64L150.56-15.64Q150.56-11.12 148.46-7.46Q146.36-3.80 142.70-1.70Q139.04 0.40 134.56 0.40L134.56 0.40Q130.04 0.40 126.38-1.70Q122.72-3.80 120.62-7.46Q118.52-11.12 118.52-15.64L118.52-15.64Q118.52-20.12 120.62-23.78Q122.72-27.44 126.38-29.54Q130.04-31.64 134.56-31.64L134.56-31.64ZM134.56-29.24Q130.72-29.24 127.60-27.46Q124.48-25.68 122.70-22.56Q120.92-19.44 120.92-15.64L120.92-15.64Q120.92-11.80 122.70-8.68Q124.48-5.56 127.60-3.78Q130.72-2 134.56-2L134.56-2Q138.36-2 141.48-3.78Q144.60-5.56 146.38-8.68Q148.16-11.80 148.16-15.64L148.16-15.64Q148.16-19.44 146.38-22.56Q144.60-25.68 141.48-27.46Q138.36-29.24 134.56-29.24L134.56-29.24Z M175.96-1.84Q176.28-1.28 176.28-0.92L176.28-0.92Q176.28-0.48 175.94-0.24Q175.60 0 174.96 0L174.96 0Q174.56 0 174.32-0.16Q174.08-0.32 173.88-0.64L173.88-0.64L166.52-12.40L165.80-12.40L159.36-12.40L159.36-1.20Q159.36-0.68 159.04-0.34Q158.72 0 158.16 0L158.16 0Q157.64 0 157.30-0.34Q156.96-0.68 156.96-1.20L156.96-1.20L156.96-30.04Q156.96-30.60 157.30-30.92Q157.64-31.24 158.16-31.24L158.16-31.24L165.80-31.24Q168.68-31.24 170.96-30.04Q173.24-28.84 174.52-26.68Q175.80-24.52 175.80-21.76L175.80-21.76Q175.80-18.48 173.98-16.10Q172.16-13.72 169.08-12.84L169.08-12.84L175.96-1.84ZM159.36-14.80L165.80-14.80Q168-14.80 169.72-15.68Q171.44-16.56 172.42-18.16Q173.40-19.76 173.40-21.76L173.40-21.76Q173.40-23.80 172.42-25.42Q171.44-27.04 169.72-27.94Q168-28.84 165.80-28.84L165.80-28.84L159.36-28.84L159.36-14.80Z M189.68-31.24Q194.20-31.24 197.76-29.24Q201.32-27.24 203.32-23.70Q205.32-20.16 205.32-15.64L205.32-15.64Q205.32-11.12 203.32-7.56Q201.32-4 197.76-2Q194.20 0 189.68 0L189.68 0L182.48 0Q181.96 0 181.62-0.34Q181.28-0.68 181.28-1.20L181.28-1.20L181.28-30.04Q181.28-30.60 181.62-30.92Q181.96-31.24 182.48-31.24L182.48-31.24L189.68-31.24ZM189.68-2.16Q193.52-2.16 196.52-3.90Q199.52-5.64 201.22-8.72Q202.92-11.80 202.92-15.64L202.92-15.64Q202.92-19.48 201.22-22.54Q199.52-25.60 196.52-27.34Q193.52-29.08 189.68-29.08L189.68-29.08L183.68-29.08L183.68-2.16L189.68-2.16Z"/></g>
</svg>
</g></svg>