<?xml version="1.0" encoding="UTF-8" standalone="no"?>
<!-- Created with Inkscape (http://www.inkscape.org/) -->

<svg
   width="210mm"
   height="297mm"
   viewBox="0 0 210 297"
   version="1.1"
   id="svg1"
   inkscape:version="1.4 (e7c3feb1, 2024-10-09)"
   sodipodi:docname="1872-2.svg"
   xmlns:inkscape="http://www.inkscape.org/namespaces/inkscape"
   xmlns:sodipodi="http://sodipodi.sourceforge.net/DTD/sodipodi-0.dtd"
   xmlns="http://www.w3.org/2000/svg"
   xmlns:svg="http://www.w3.org/2000/svg">
  <sodipodi:namedview
     id="namedview1"
     pagecolor="#ffffff"
     bordercolor="#000000"
     borderopacity="0.25"
     inkscape:showpageshadow="2"
     inkscape:pageopacity="0.0"
     inkscape:pagecheckerboard="0"
     inkscape:deskcolor="#d1d1d1"
     inkscape:document-units="mm"
     inkscape:zoom="3.1977245"
     inkscape:cx="374.32868"
     inkscape:cy="463.45456"
     inkscape:window-width="1472"
     inkscape:window-height="853"
     inkscape:window-x="0"
     inkscape:window-y="37"
     inkscape:window-maximized="1"
     inkscape:current-layer="layer1" />
  <defs
     id="defs1" />
  <g
     inkscape:label="Layer 1"
     inkscape:groupmode="layer"
     id="layer1">
    <path
       class="cls-29"
       d="m 93.497041,106.65105 c 0.928186,-0.0294 1.87963,-0.35557 2.539998,-1.02657 0.140611,0.0399 0.441487,-0.0804 0.481542,0.0601 0,3.83406 0,7.66811 0,11.50217 1.17387,0 2.347739,0 3.521609,0 0,-0.29369 0,-0.58737 0,-0.88106 -0.861661,0 -1.723323,0 -2.584984,0 0,-3.78442 0,-7.56885 0,-11.35327 -0.640292,0 -1.280583,0 -1.920875,0 -0.509332,0.57334 -1.294149,0.80658 -2.039938,0.83079 0,0.31662 0,0.63323 0,0.94985 0.0019,-0.0254 -0.0035,-0.061 0.0026,-0.082 z"
       id="path1461"
       style="fill:#1a1a1a;stroke-width:0px" />
    <path
       class="cls-29"
       d="m 92.674187,117.35609 c -0.08074,-0.26657 0.234018,-0.13764 0.390808,-0.16668 1.096515,0 2.193031,0 3.289546,0 0,-3.79942 0,-7.59883 0,-11.39825 -0.335427,-0.0815 -0.490593,0.29387 -0.766723,0.41347 -0.621062,0.39457 -1.357118,0.59846 -2.090777,0.61311 0,0.24871 0,0.49742 0,0.74613 0.698826,-0.0159 1.387946,-0.23678 1.989667,-0.58738 0,3.10974 0,6.21947 0,9.32921 -0.936625,0 -1.87325,0 -2.809875,0 0,0.58208 0,1.16417 0,1.74625 2.456216,0 4.912431,0 7.368647,0 0,-0.23283 0,-0.46567 0,-0.6985 -2.456732,0.002 -4.916381,-0.004 -7.371293,0.003 z"
       id="path1462"
       style="fill:#1a1a1a;stroke-width:0px" />
    <path
       class="cls-29"
       d="m 116.61182,122.22579 c -0.94381,0.0516 -1.99188,-0.48601 -2.20499,-1.46657 -0.24552,-0.86071 0.22083,-1.74479 0.90663,-2.25556 0.39814,-0.32815 0.83887,-0.59905 1.28248,-0.86046 0.88435,0.54098 1.93481,1.12248 2.20549,2.20308 0.22362,0.92268 -0.32865,1.95339 -1.24799,2.22965 -0.30074,0.10608 -0.62088,0.14986 -0.93898,0.14986 m 0.35189,-5.24405 c -0.17772,-0.0811 -0.35001,-0.2524 -0.52434,-0.11519 -1.08609,0.5937 -2.30189,1.19432 -2.90352,2.33682 -0.57518,1.11934 -0.12749,2.61248 0.95762,3.2453 1.10949,0.67245 2.54961,0.71121 3.74206,0.24127 1.02111,-0.39362 1.75894,-1.45151 1.66359,-2.55883 -0.0514,-1.15617 -0.99162,-1.9995 -1.91145,-2.56479 -0.33179,-0.20948 -0.67522,-0.39979 -1.02122,-0.58458 z"
       id="path1463"
       style="fill:#1a1a1a;stroke-width:0px" />
    <path
       class="cls-29"
       d="m 115.55613,107.0109 c -0.0403,-0.85111 0.67312,-1.58816 1.50232,-1.6757 0.8786,-0.16048 1.97933,0.15536 2.29402,1.07612 0.28973,0.743 -0.0511,1.5838 -0.66189,2.05346 -0.5401,0.39101 -1.18891,1.14537 -1.78465,0.4421 -0.65757,-0.42918 -1.369,-1.03626 -1.35246,-1.89598 m 1.95263,3.048 c 0.22495,-0.023 0.44713,-0.25392 0.6681,-0.35119 0.93922,-0.56545 1.9437,-1.35798 2.02308,-2.53959 0.11674,-1.08471 -0.59592,-2.17815 -1.65003,-2.48329 -1.2071,-0.38889 -2.76829,-0.0949 -3.43116,1.08161 -0.5592,0.97445 -0.32103,2.2879 0.51425,3.03174 0.53713,0.52853 1.19578,0.9039 1.84133,1.28192 -0.0331,0.004 0.0634,-0.0243 0.0344,-0.0212 z"
       id="path1464"
       style="fill:#1a1a1a;stroke-width:0px" />
    <path
       class="cls-29"
       d="m 106.35457,116.79399 c -1.28953,0.0349 -2.73095,-0.53532 -3.26913,-1.78513 -0.45927,-1.01744 -0.19371,-2.2784 0.6116,-3.04525 0.68755,-0.70398 1.56865,-1.16845 2.42733,-1.6281 -1.0387,-0.61166 -2.22384,-1.29472 -2.56971,-2.53843 -0.31399,-1.12813 0.21906,-2.44917 1.30023,-2.94909 1.17572,-0.55607 2.75608,-0.4326 3.68253,0.53846 0.92138,0.97266 0.86323,2.65798 -0.10054,3.58513 -0.53809,0.57162 -1.22361,0.96977 -1.89442,1.36393 1.12909,0.61462 2.39163,1.24319 3.00484,2.43755 0.59449,1.18641 0.132,2.76068 -1.01072,3.43748 -0.6459,0.41456 -1.42402,0.58385 -2.18462,0.58345 m 1.55575,-6.35 c 1.01688,-0.59931 1.96809,-1.52321 2.12053,-2.74789 0.21901,-1.21461 -0.32246,-2.54807 -1.41047,-3.16904 -1.20112,-0.69188 -2.72299,-0.72773 -4.01302,-0.27222 -1.18527,0.41509 -2.03994,1.60683 -2.00723,2.86863 -0.0386,1.13676 0.58221,2.20957 1.49351,2.86308 0.24378,0.24657 0.9869,0.45856 0.32572,0.65068 -1.02871,0.58458 -2.06185,1.44367 -2.26843,2.67582 -0.24959,1.27238 0.2991,2.6936 1.45045,3.34261 1.27783,0.73917 2.85571,0.78347 4.26958,0.48258 1.22256,-0.25925 2.36246,-1.16533 2.61353,-2.43198 0.26951,-1.10901 -0.0731,-2.34349 -0.92686,-3.11288 -0.48486,-0.46896 -1.06384,-0.82679 -1.6526,-1.14939 z"
       id="path1465"
       style="fill:#1a1a1a;stroke-width:0px" />
    <path
       class="cls-29"
       d="m 102.16215,133.52478 c -0.0314,-1.89038 1.15741,-3.61335 2.68839,-4.63325 1.28741,-0.93233 2.624,-2.04284 3.06238,-3.63954 0.31301,-1.14148 -0.1374,-2.55245 -1.27436,-3.04802 -1.22916,-0.58017 -2.80925,-0.10804 -3.56646,1.00966 -0.23186,0.38213 -0.74431,0.98577 -0.58055,1.34773 0.33739,0.0981 0.80698,0.56034 0.88213,-0.0198 0.39078,-0.83865 1.15431,-1.63795 2.14419,-1.62169 0.70569,-0.0346 1.47197,0.42017 1.56138,1.16675 0.25705,1.18445 -0.38465,2.37864 -1.29709,3.10499 -1.28355,1.13301 -2.84791,2.05168 -3.66472,3.61693 -0.5516,1.01786 -0.74372,2.19565 -0.712,3.34332 2.56558,0 5.13115,0 7.69673,0 0,-0.20814 0,-0.41627 0,-0.62441 -2.31322,-0.002 -4.62739,0.004 -6.94002,-0.003 z"
       id="path1466"
       style="fill:#1a1a1a;stroke-width:0px" />
    <path
       class="cls-29"
       d="m 102.86329,123.11872 c 0.83564,-1.25246 2.62832,-1.78136 3.97826,-1.06867 1.02465,0.53642 1.54292,1.76282 1.35554,2.88265 -0.22421,1.53417 -1.37022,2.72109 -2.54323,3.63621 -0.82539,0.61558 -1.71358,1.19247 -2.29757,2.06316 -0.5611,0.77603 -0.94499,1.70468 -0.96925,2.67046 2.24014,0 4.48028,0 6.72042,0 0,-0.29986 0,-0.59972 0,-0.89958 -1.80446,0 -3.60892,0 -5.41338,0 0.0156,-1.21513 0.97453,-2.11726 1.85536,-2.8251 1.23557,-1.00497 2.65721,-1.96518 3.26967,-3.50299 0.51862,-1.35356 0.38668,-3.07947 -0.71096,-4.11542 -1.11765,-0.99067 -2.81407,-1.06277 -4.15439,-0.52317 -1.14675,0.50292 -1.92605,1.58376 -2.38693,2.71432 0.31136,0.11535 0.71293,0.46991 0.74985,-0.0729 0.14426,-0.34022 0.32827,-0.66352 0.54661,-0.96163 z"
       id="path1467"
       style="fill:#1a1a1a;stroke-width:0px" />
    <path
       id="polygon1467"
       style="fill:#1a1a1a;stroke-width:0px"
       class="cls-29"
       d="m 92.674187,123.15047 h 5.275791 l -4.323291,10.99873 h 0.997479 l -0.07673,-0.0291 4.344458,-11.06752 v -0.70114 h -6.217708 v -0.16669 h 6.384396 v 0.89958 l -0.0053,0.0132 -4.339167,11.05165 h 0.971021 l 4.357684,-11.17336 v -1.62454 h -7.368642 z" />
  </g>
</svg>
