<?xml version="1.0" encoding="UTF-8" standalone="no"?>
<!-- Created with Inkscape (http://www.inkscape.org/) -->

<svg
   width="210mm"
   height="297mm"
   viewBox="0 0 210 297"
   version="1.1"
   id="svg1"
   inkscape:version="1.4 (e7c3feb1, 2024-10-09)"
   sodipodi:docname="1872.svg"
   xmlns:inkscape="http://www.inkscape.org/namespaces/inkscape"
   xmlns:sodipodi="http://sodipodi.sourceforge.net/DTD/sodipodi-0.dtd"
   xmlns="http://www.w3.org/2000/svg"
   xmlns:svg="http://www.w3.org/2000/svg">
  <sodipodi:namedview
     id="namedview1"
     pagecolor="#ffffff"
     bordercolor="#000000"
     borderopacity="0.25"
     inkscape:showpageshadow="2"
     inkscape:pageopacity="0.0"
     inkscape:pagecheckerboard="0"
     inkscape:deskcolor="#d1d1d1"
     inkscape:document-units="mm"
     inkscape:zoom="3.1977245"
     inkscape:cx="374.32869"
     inkscape:cy="463.45456"
     inkscape:window-width="1472"
     inkscape:window-height="853"
     inkscape:window-x="0"
     inkscape:window-y="37"
     inkscape:window-maximized="1"
     inkscape:current-layer="layer1" />
  <defs
     id="defs1" />
  <g
     inkscape:label="Layer 1"
     inkscape:groupmode="layer"
     id="layer1">
    <path
       class="cls-29"
       d="m 93.497041,106.65105 c 0.01323,0 1.500188,0.0132 2.516188,-1.00277 l 0.02381,-0.0238 h 0.481542 c 0,0 0,11.56229 0,11.56229 h 3.521609 c 0,0 0,-0.88106 0,-0.88106 h -2.584984 c 0,0 0,-11.35327 0,-11.35327 h -1.920875 c -0.484188,0.5371 -1.193271,0.79639 -2.039938,0.83079 v 0.94985 c 0,0 0,-0.082 0,-0.082 z"
       id="path1461"
       style="fill:#1a1a1a;stroke-width:0px" />
    <path
       class="cls-29"
       d="m 92.674187,117.35609 v -0.16668 c 0,0 3.680354,0 3.680354,0 v -11.39825 c 0,0 -0.246062,0 -0.246062,0 -1.06098,1.03716 -2.534709,1.02658 -2.611438,1.02658 v 0.74613 c 0.640292,0 1.452563,-0.2593 1.989667,-0.58738 v 9.32921 c 0,0 -2.809875,0 -2.809875,0 v 1.74625 c 0,0 7.368647,0 7.368647,0 v -0.6985 c 0,0 -7.368647,0 -7.368647,0 z"
       id="path1462"
       style="fill:#1a1a1a;stroke-width:0px" />
    <path
       class="cls-29"
       d="m 105.27629,116.59939 h -0.0344 c -1.39965,0 -2.23044,-0.84667 -2.23044,-1.97115 0,-1.14035 0.94985,-1.84944 2.24896,-2.61144 1.29645,0.762 2.24895,1.47109 2.24895,2.61144 0,1.12448 -0.83079,1.97115 -2.23043,1.97115 m 0.35189,-5.24405 -0.32808,-0.17462 -0.0423,0.0265 -0.0423,-0.0265 -0.32808,0.17462 c -1.48696,0.7964 -2.93688,1.70392 -2.93688,3.29671 0,1.60073 1.35203,2.71992 3.28878,2.71992 h 0.0397 c 1.93675,0 3.28877,-1.11919 3.28877,-2.71992 0,-1.59279 -1.44991,-2.50296 -2.93687,-3.29671"
       id="path1463"
       style="fill:#1a1a1a;stroke-width:0px" />
    <path
       class="cls-29"
       d="m 103.31044,107.92105 c 0,-0.97366 0.71966,-1.70921 1.9341,-1.70921 h 0.0291 c 1.21443,0 1.9341,0.73555 1.9341,1.70921 0,0.98954 -0.8255,1.60338 -1.94998,2.26484 -1.12448,-0.65882 -1.94998,-1.2753 -1.94998,-2.26484 m 1.95263,3.048 0.0397,0.0212 0.29369,-0.17198 c 1.19592,-0.70115 2.36538,-1.50812 2.36538,-2.93687 0,-1.43934 -1.10332,-2.44475 -2.68023,-2.44475 h -0.0318 c -1.57957,0 -2.68023,1.00541 -2.68023,2.44475 0,1.42875 1.16681,2.23308 2.36537,2.93687 l 0.29369,0.17198 0.0397,-0.0212 z"
       id="path1464"
       style="fill:#1a1a1a;stroke-width:0px" />
    <path
       class="cls-29"
       d="m 105.27894,117.53866 h -0.0397 c -2.03465,0 -3.45281,-1.18798 -3.45281,-2.88661 0,-1.68539 1.49489,-2.62731 3.02418,-3.44487 l 0.23813,-0.127 -0.20638,-0.12171 c -1.23825,-0.7276 -2.44739,-1.56369 -2.44739,-3.07975 0,-1.53723 1.1721,-2.61144 2.84692,-2.61144 h 0.0318 c 1.67745,0 2.84691,1.07421 2.84691,2.61144 0,1.51871 -1.20914,2.35479 -2.44739,3.07975 l -0.20638,0.12171 0.23813,0.127 c 1.52929,0.81756 3.02418,1.75948 3.02418,3.44487 0,1.69863 -1.42081,2.88661 -3.45281,2.88661 m 1.55575,-6.35 c 1.26206,-0.77788 2.16165,-1.71186 2.16165,-3.32052 0,-1.64307 -1.22767,-3.16442 -3.73592,-3.16442 -2.50825,0 -3.73592,1.52135 -3.73592,3.16442 0,1.60866 0.89959,2.54264 2.16165,3.32052 -1.48696,0.81227 -2.66435,1.76477 -2.66435,3.47662 0,1.93675 1.43668,3.38931 4.23597,3.38931 2.80194,0 4.23598,-1.45256 4.23598,-3.38931 0,-1.71185 -1.17475,-2.66435 -2.66435,-3.47662"
       id="path1465"
       style="fill:#1a1a1a;stroke-width:0px" />
    <path
       class="cls-29"
       d="m 102.16215,133.52478 v -0.11112 c 0,-2.48973 2.16693,-4.14602 2.1881,-4.1619 1.32027,-0.93927 3.12473,-2.2225 3.56129,-4.01637 0.21431,-0.88107 0.0556,-1.74625 -0.43921,-2.37332 -0.46037,-0.58473 -1.16946,-0.90487 -1.9976,-0.90487 -2.1934,0 -2.98715,2.24367 -3.08769,2.55852 l 0.83608,0.36512 c 0.51859,-1.24618 1.28059,-1.95527 2.28336,-1.95527 1.05569,0 1.62454,0.58738 1.62454,1.67746 0,3.57981 -5.72558,3.51102 -5.72558,9.271 v 0.27781 c 0,0 7.69673,0 7.69673,0 v -0.62441 c 0,0 -6.94532,0 -6.94532,0 z"
       id="path1466"
       style="fill:#1a1a1a;stroke-width:0px" />
    <path
       class="cls-29"
       d="m 102.86329,123.11872 c 0.66675,-0.90488 1.57163,-1.38377 2.61408,-1.38377 0.89959,0 1.66953,0.35189 2.17223,0.99219 0.53446,0.68262 0.70909,1.6166 0.4789,2.56381 -0.45508,1.87325 -2.30188,3.18294 -3.64596,4.14073 -0.0185,0.0132 -2.032,1.55575 -2.0955,3.87085 h 6.72042 c 0,0 0,-0.89958 0,-0.89958 h -5.41338 c 0.0529,-3.00831 5.41338,-3.75179 5.41338,-7.88723 0,-2.00554 -1.22767,-3.40783 -3.47663,-3.40783 -2.02406,0 -3.28612,1.19327 -4.064,3.0427 l 0.61913,0.27253 c 0.0609,-0.18786 0.26194,-0.74348 0.67733,-1.30705"
       id="path1467"
       style="fill:#1a1a1a;stroke-width:0px" />
    <path
       id="polygon1467"
       style="fill:#1a1a1a;stroke-width:0px"
       class="cls-29"
       d="m 92.674187,123.15047 h 5.275791 l -4.323291,10.99873 h 0.997479 l -0.07673,-0.0291 4.344458,-11.06752 v -0.70114 h -6.217708 v -0.16669 h 6.384396 v 0.89958 l -0.0053,0.0132 -4.339167,11.05165 h 0.971021 l 4.357684,-11.17336 v -1.62454 h -7.368642 z" />
  </g>
</svg>
