<?xml version="1.0" encoding="UTF-8" standalone="no"?>
<!-- Created with Inkscape (http://www.inkscape.org/) -->

<svg
   version="1.1"
   id="svg1"
   width="1066.667"
   height="1066.6667"
   viewBox="0 0 1066.6669 1066.6667"
   sodipodi:docname="arab_flower_cut.svg"
   inkscape:version="1.4 (e7c3feb1, 2024-10-09)"
   inkscape:export-filename="arab_flower_cut.png"
   inkscape:export-xdpi="96"
   inkscape:export-ydpi="96"
   xmlns:inkscape="http://www.inkscape.org/namespaces/inkscape"
   xmlns:sodipodi="http://sodipodi.sourceforge.net/DTD/sodipodi-0.dtd"
   xmlns="http://www.w3.org/2000/svg"
   xmlns:svg="http://www.w3.org/2000/svg">
  <defs
     id="defs1">
    <inkscape:path-effect
       effect="powermask"
       id="path-effect2"
       is_visible="true"
       lpeversion="1"
       uri="#mask-powermask-path-effect2"
       invert="false"
       hide_mask="false"
       background="true"
       background_color="#ffffffff" />
    <mask
       maskUnits="userSpaceOnUse"
       id="mask-powermask-path-effect2">
      <path
         id="mask-powermask-path-effect2_box"
         style="fill:#ffffff;fill-opacity:1"
         d="M -1,-1 H 1067.667 V 1067.667 H -1 Z" />
      <path
         style="fill:#000000"
         d="m 520.66683,1012.5541 c -57.5018,-30.61801 -102.104,-74.14074 -124.646,-121.62926 -3.2887,-6.92806 -6.0644,-12.77223 -6.1684,-12.98705 -0.1039,-0.21482 -3.4132,0.87586 -7.354,2.42375 -12.7815,5.02048 -24.1221,7.92303 -44.1894,11.31001 -40.723,6.87329 -88.42814,3.46068 -133.64223,-9.56016 -18.20913,-5.24389 -18.58802,-5.53192 -22.02579,-16.74397 -8.08111,-26.35591 -13.35603,-56.24401 -14.77314,-83.70572 -1.96841,-38.1449 2.52829,-70.44299 13.9556,-100.23782 l 3.41516,-8.90447 -3.76722,-0.82742 c -4.75715,-1.04485 -28.46875,-14.24875 -41.00585,-22.83428 -22.86486,-15.65808 -48.963703,-41.90323 -66.002323,-66.37234 -4.14529,-5.95303 -8.80415,-12.42928 -10.35302,-14.39167 -3.63028,-4.5995 -21.44343,-37.25592 -21.44343,-39.31174 0,-2.61374 8.76315,-18.59683 20.8724,-38.06912 13.58917,-21.85208 47.470973,-60.96962 59.794273,-69.03426 2.2,-1.43973 9.35579,-6.80276 15.90175,-11.91784 6.64787,-5.19472 19.00814,-12.91724 28,-17.49402 8.85404,-4.50662 16.2834,-8.37153 16.50969,-8.58868 0.22629,-0.21714 -0.57712,-2.70966 -1.78537,-5.53893 -2.53037,-5.92517 -4.54241,-12.88234 -9.3894,-32.46642 -9.73948,-39.35195 -6.98123,-97.46873 6.8065,-143.41416 3.26368,-10.87571 6.39753,-20.23758 6.96411,-20.80416 1.1158,-1.11579 17.84238,-6.1712 36.99272,-11.1806 6.6,-1.72644 22.5,-4.44211 35.33334,-6.03482 19.2857,-2.39349 27.14973,-2.75144 45.33333,-2.06347 12.1,0.4578 27.3315,1.71375 33.8478,2.791 9.6671,1.59815 40.0706,9.87735 48.9467,13.32871 1.5943,0.61992 2.6841,-0.62916 4.3464,-4.98172 2.5904,-6.78297 13.8887,-27.00819 19.916,-35.65182 15.2649,-21.8912 42.2481,-49.286068 65.5882,-66.588778 13.2859,-9.84916 27.5192,-19.36137 34.2407,-22.88322 1.9538,-1.02374 7.2217,-3.81135 11.7065,-6.19468 4.4848,-2.38334 9.0413,-4.33334 10.1257,-4.33334 4.4619,0 34.6002,17.52026 55.7447,32.40595 15.205,10.70434 37.3366,31.550608 54.658,51.483508 7.5262,8.66088 24.01,34.35588 29.1307,45.40894 2.8788,6.2141 5.3789,11.44299 5.5557,11.61974 0.1767,0.17676 7.1471,-2.08295 15.4897,-5.02157 24.927,-8.7803 41.7636,-11.15514 79.3699,-11.19529 35.8444,-0.0383 43.1093,0.80833 76.6667,8.93406 30.3798,7.35631 30.8082,7.56018 33.7404,16.05652 3.2895,9.53168 5.4425,17.6302 9.4822,35.6675 4.8061,21.45901 6.0146,31.77603 6.947,59.30734 0.7646,22.57673 -0.1241,35.13615 -4.1994,59.35229 -1.1115,6.60478 -5.8748,23.48183 -9.2142,32.64771 -1.8703,5.13334 -2.8533,9.51739 -2.1846,9.74233 3.9458,1.32725 24.4636,11.7667 30.0953,15.31244 33.3675,21.00849 61.8995,49.45869 87.17267,86.923 12.7621,18.91809 22.8273,37.46512 22.8273,42.06333 0,1.52183 -3.3,8.48265 -7.3333,15.46851 -4.0334,6.98585 -7.3334,12.9734 -7.3334,13.30566 0,1.58853 -13.68171,21.33297 -23.45687,33.85142 -17.6292,22.5764 -40.3717,44.43852 -61.2098,58.84045 -7.135,4.93125 -27.7638,17.15955 -28.9477,17.15955 -0.3923,0 -3.4727,1.22061 -6.8453,2.71247 l -6.132,2.71247 2.7771,6.9542 c 18.5198,46.37621 19.824,117.79416 3.1585,172.95421 -1.6617,5.5 -3.6967,12.47882 -4.5221,15.5085 -0.8254,3.02967 -2.248,6.09944 -3.1613,6.8217 -2.264,1.79043 -24.8807,9.07481 -36.3272,11.70023 -25.8803,5.93605 -44.7488,7.94704 -73.3333,7.8158 -20.5189,-0.0942 -31.3843,-0.75334 -40.6667,-2.46696 -14.9107,-2.75268 -33.6535,-7.48978 -44.1375,-11.15542 l -7.4708,-2.61212 -6.4804,12.8608 c -7.6248,15.13178 -19.3008,33.14586 -29.9412,46.19414 -15.5177,19.02923 -44.66,44.86208 -67.3034,59.66031 -13.0831,8.55015 -38.2042,22.34465 -40.636,22.31405 -1.1169,-0.014 -7.4307,-2.901 -14.0307,-6.4153 z m -5.3323,-72.22618 c 4.946,-2.12011 15.3323,-10.5509 15.3323,-12.44559 0,-0.21864 0.6123,-3.70991 1.3607,-7.75836 2.3501,-12.71274 -3.8083,-34.76338 -14.448,-51.7323 -2.8402,-4.52975 -4.1226,-7.83434 -3.4022,-8.76715 3.849,-4.98399 13.9903,-20.89016 15.9825,-25.06794 2.7005,-5.66301 4.3396,-5.69697 7.1828,-0.14881 2.5608,4.99686 8.2787,14.38279 9.2928,15.25393 0.4269,0.36667 2.6551,2.98855 4.9517,5.8264 l 4.1755,5.15974 -4.8165,7.50693 c -7.1165,11.09165 -10.5745,18.83559 -12.9698,29.04476 -5.718,24.3715 0.6337,39.91439 18.2352,44.62205 27.6869,7.40514 75.355,-39.10951 89.952,-87.77545 3.1286,-10.43042 4.5033,-23.96274 4.5033,-44.32816 0,-0.39159 3.6293,3.06658 8.065,7.68482 14.8302,15.44029 38.2901,28.15021 63.2683,34.27703 13.6905,3.35807 16.131,3.55672 36.6667,2.98446 18.0486,-0.50294 23.5151,-1.1357 30.4352,-3.52296 12.3333,-4.25464 18.2596,-8.67689 22.1853,-16.55468 5.2349,-10.50512 4.4093,-18.67028 -2.9725,-29.39704 -6.4561,-9.38159 -29.2151,-21.97523 -45.8429,-25.36699 l -8.3574,-1.70477 -1.653,-11.22807 c -0.9092,-6.17544 -2.5784,-14.22808 -3.7094,-17.89474 -2.6127,-8.4702 -2.5914,-9.15764 0.248,-8.00384 2.6636,1.0823 16.101,4.13906 27.1698,6.1806 l 7.5032,1.38389 2.1923,8.88413 c 2.9401,11.91407 12.6072,31.45075 19.3524,39.11022 6.7496,7.66441 14.869,11.77834 23.2461,11.77834 14.3657,0 22.6163,-7.7652 29.0421,-27.33334 2.7046,-8.23606 3.0685,-11.99814 3.0954,-32 0.028,-20.61301 -0.297,-23.84561 -3.5839,-35.67879 -6.7142,-24.17148 -18.1906,-45.0179 -32.6282,-59.26813 -4.614,-4.55414 -8.3891,-8.60414 -8.3891,-9 0,-0.39587 5.2898,-0.71976 11.7551,-0.71976 20.2601,0 38.7801,-4.80878 57.5782,-14.95037 20.9212,-11.28704 35.2373,-23.11605 47.2599,-39.04963 9.9257,-13.15456 13.9124,-21.40158 14.8963,-30.81495 2.3861,-22.82917 -17.3205,-34.90576 -45.2971,-27.75888 -8.5359,2.18059 -26.7721,10.73862 -32.5243,15.26328 l -3.3286,2.61831 -6.1698,-5.11051 c -3.3933,-2.81078 -10.5197,-7.6315 -15.8364,-10.7127 -5.3167,-3.0812 -9.6667,-5.79016 -9.6667,-6.0199 0,-0.22975 4.65,-3.21038 10.3334,-6.62362 5.6833,-3.41324 12.7992,-8.04513 15.8131,-10.29308 l 5.4799,-4.08719 7.1868,4.59545 c 9.4994,6.07418 22.1844,11.04852 34.8587,13.66963 8.538,1.7657 11.6347,1.86175 17.9875,0.5579 15.2372,-3.12726 24.3002,-18.55725 20.5197,-34.93524 -4.0768,-17.66131 -28.0145,-44.97651 -51.8738,-59.19278 -10.6931,-6.37137 -29.784,-14.69314 -36.3053,-15.82557 -2.5666,-0.44571 -7.3666,-1.4384 -10.6666,-2.20598 -3.3,-0.76758 -11.8325,-1.78454 -18.9611,-2.2599 l -12.961,-0.86428 8.3273,-8.66667 c 10.7188,-11.15558 14.5151,-16.35803 20.1019,-27.54765 16.285,-32.61643 20.8147,-70.44126 12.0834,-100.90056 -4.5453,-15.85647 -16.6616,-26.28594 -30.4249,-26.18919 -17.3336,0.12185 -36.1324,25.61303 -41.3883,56.12263 l -0.8301,4.81858 -8.6411,0.8853 c -4.7525,0.48692 -12.3907,2.06082 -16.9736,3.49756 -13.2783,4.16273 -12.9346,4.49875 -9.5353,-9.32153 1.6191,-6.58251 3.353,-14.94372 3.8532,-18.58048 l 0.9094,-6.61228 6.3668,-1.36543 c 8.3767,-1.79648 26.335,-8.41112 31.5109,-11.60651 6.8906,-4.25394 16.1841,-13.07349 19.2479,-18.26614 5.7996,-9.82958 2.5339,-25.40892 -7.099,-33.8666 -6.2779,-5.51203 -22.3503,-10.61193 -37.2547,-11.82127 -25.7559,-2.08982 -58.0784,4.66406 -81.1806,16.96292 -9.0129,4.7982 -27.8797,19.6515 -30.9889,24.39672 -1.223,1.86665 -2.6811,3.39392 -3.2402,3.39392 -0.559,0 -1.1165,-4.69224 -1.2387,-10.42719 -0.3061,-14.3561 -2.5217,-27.19157 -6.6007,-38.23948 -1.8953,-5.13334 -4.2352,-11.50777 -5.1999,-14.16541 -2.4787,-6.82877 -9.009,-17.62144 -17.2452,-28.50126 -15.6638,-20.69163 -38.4191,-37.83755 -53.1475,-40.0462 -13.4024,-2.00981 -28.1291,6.77685 -31.3634,18.71286 -3.9447,14.5581 1.4613,36.16291 14.0837,56.28428 2.3982,3.82302 3.8356,7.27527 3.1943,7.67166 -1.4829,0.91645 -15.7347,22.51307 -17.6932,26.81146 -0.8101,1.77793 -1.8265,3.22549 -2.2588,3.21679 -0.4323,-0.009 -2.6927,-3.4587 -5.0231,-7.66667 -4.3028,-7.76962 -6.2081,-10.50216 -12.7629,-18.30486 -4.4406,-5.28592 -4.4462,-5.39011 -0.5668,-10.55347 4.5821,-6.09868 8.471,-13.67684 12.2253,-23.82296 2.6509,-7.16421 3.3415,-11.51292 3.3415,-21.04283 0,-18.42786 -4.6491,-26.05171 -18.3332,-30.06363 -12.2681,-3.59679 -25.678,0.87728 -42.2929,14.11062 -22.2561,17.72636 -38.0741,40.86773 -47.3472,69.26777 -5.1068,15.64013 -6.859,27.45445 -5.7978,39.09185 0.4514,4.95 0.3903,9 -0.1357,9 -0.5259,0 -3.9134,-3.23553 -7.5276,-7.19006 -12.5575,-13.73994 -34.837,-26.55013 -58.5656,-33.67386 -12.0032,-3.60357 -13.9936,-3.80275 -38,-3.80275 -22.9454,0 -26.229,0.29353 -34.83452,3.11398 -5.22563,1.71269 -11.75303,4.97017 -14.50533,7.23885 -5.59001,4.60775 -11.3008,15.54703 -11.3008,21.64717 0,5.84442 5.55641,16.6059 11.48124,22.23649 8.83568,8.39687 31.94301,19.01916 46.48021,21.36662 2.1972,0.35481 3.0253,2.37694 4.8103,11.74608 1.1859,6.22461 3.1092,14.46748 4.274,18.31748 2.1105,6.97581 2.1076,7 -0.8371,7 -1.6252,0 -7.1429,-1.14128 -12.2615,-2.53618 -5.1186,-1.39491 -12.3449,-2.93586 -16.0586,-3.42435 l -6.752,-0.88816 -1.6151,-7.81946 c -1.54796,-7.4946 -5.316,-17.24523 -11.07738,-28.66518 -3.82118,-7.57418 -14.11878,-17.85639 -21.01125,-20.97984 -15.59863,-7.06881 -31.3492,1.33281 -38.52269,20.54864 -4.95583,13.27532 -6.54715,40.96353 -3.43483,59.76454 1.48242,8.95504 7.55209,27.41647 12.64344,38.45612 6.39091,13.85747 15.42204,26.81219 24.90045,35.71848 l 7.28073,6.84127 h -11.85831 c -32.99263,0 -69.59077,16.2605 -95.18615,42.29107 -12.93783,13.1578 -19.97914,23.57779 -24.00172,35.51866 -4.49235,13.33531 -0.9162,25.84776 9.32435,32.62464 13.24429,8.76465 41.82027,4.08208 63.0439,-10.33061 l 7.79889,-5.29613 4.46734,3.92238 c 3.99289,3.5058 11.19769,8.44886 22.57311,15.48691 4.47383,2.76799 3.76922,3.84436 -5.82071,8.89182 -3.3,1.73689 -9.52863,5.7741 -13.8414,8.97158 l -7.8414,5.81361 -3.49194,-2.51201 c -9.63471,-6.93096 -30.48449,-14.99118 -43.79894,-16.93202 -17.09144,-2.49141 -31.16293,7.69193 -34.38867,24.88657 -3.23927,17.26684 25.9253,54.32893 56.5405,71.85119 20.01534,11.45555 45.23845,18.44957 66.56981,18.4589 l 9.74796,0.004 -9.51843,9.66666 c -8.73329,8.8693 -22.64416,29.41288 -22.64416,33.44091 0,0.93084 -0.53676,2.26243 -1.19279,2.9591 -2.73672,2.90623 -8.13693,21.31263 -10.06761,34.31504 -5.29162,35.63728 0.46361,67.04548 14.09479,76.91985 15.41216,11.16451 31.71272,7.23458 43.76449,-10.55124 7.71931,-11.39205 10.73037,-18.0951 14.05598,-31.29061 l 3.05614,-12.12637 7.1445,-1.08422 c 3.9295,-0.59632 10.7445,-1.99623 15.1445,-3.11093 14.7183,-3.72873 15.7205,-3.79476 14.8347,-0.97741 -3.0083,9.56868 -6.168,24.48628 -6.168,29.12054 v 5.52141 l -12.3334,3.05 c -21.2671,5.25932 -41.02584,18.05579 -46.50571,30.11885 -6.54661,14.41127 0.69758,30.27979 17.14339,37.5529 26.36652,11.66054 67.54612,8.63567 102.54152,-7.53226 13.9234,-6.43265 21.5576,-11.65748 32.8209,-22.4625 l 9,-8.63388 0.021,11.21875 c 0.028,14.91043 4.0636,33.30519 10.7312,48.91121 6.5994,15.44635 12.3184,24.66056 22.9486,36.97422 10.7629,12.46722 15.8737,17.10912 26.9451,24.47282 16.3199,10.85458 26.1281,13.00589 37.3552,8.19339 z m -76.4173,-64.33288 c -6.0284,-11.05827 -8.8275,-18.90641 -7.7471,-21.72166 0.4499,-1.17243 2.5324,-1.94501 5.2429,-1.94501 19.1766,0 43.5912,-19.90647 57.4689,-46.85745 9.8393,-19.10803 13.037,-31.82043 13.125,-52.17818 l 0.074,-17.03562 4.1265,-1.89146 c 4.4211,-2.02654 18.4012,-5.09516 22.7931,-5.00305 3.3022,0.0693 18.6986,3.8704 23.6987,5.85085 3.615,1.43181 3.6811,1.64992 2.9193,9.62329 -0.4287,4.48705 -0.1193,13.46373 0.6874,19.94816 5.424,43.59602 37.1937,84.39247 67.887,87.17564 10.0163,0.90825 10.1785,1.80381 3.1102,17.17269 -8.024,17.44686 -7.7896,17.2289 -16.374,15.22453 -18.578,-4.33782 -30.7549,-9.64671 -44.7834,-19.52464 -14.3244,-10.08633 -25.9895,-25.95958 -33.766,-45.94677 l -3.7181,-9.55636 -3.0123,9.16585 c -4.6424,14.12631 -12.6256,26.65853 -24.6112,38.63545 -8.7986,8.79217 -13.1585,11.95778 -23.4242,17.00751 -11.1646,5.49189 -29.8928,11.4449 -36.1867,11.50242 -1.4169,0.013 -4.1764,-3.53162 -7.5097,-9.64619 z m -99.7496,-39.16934 c -20.1243,-31.45927 -23.2986,-65.33598 -9.2029,-98.21412 4.2464,-9.90459 4.3191,-10.34338 1.5769,-9.51464 -1.5812,0.47785 -4.6748,1.94598 -6.8748,3.26252 -9.5375,5.70749 -23.1428,8.48029 -42,8.55973 -15.54184,0.0655 -19.27465,-0.3553 -27.33336,-3.08117 -9.43978,-3.193 -29.48178,-13.07134 -35.00484,-17.25324 l -3.00482,-2.27518 2.71395,-9.79363 c 2.42717,-8.75872 5.54452,-16.08645 9.06684,-21.31277 0.95192,-1.41244 2.61827,-0.77836 7.8701,2.9947 12.77574,9.17846 17.84705,10.70648 35.6921,10.75427 25.77373,0.069 37.43073,-2.57211 56.66663,-12.83905 13.2115,-7.05146 21.8475,-13.67779 30.6418,-23.51135 l 7.23,-8.08426 4.5267,1.89142 c 10.8021,4.51338 19.5601,11.85788 26.6016,22.30815 3.85,5.7138 6.9959,11.7138 6.9908,13.33334 -0.01,1.8725 -1.7314,4.11766 -4.7396,6.16649 -8.6047,5.86051 -19.9586,20.58628 -27.1156,35.16831 -9.9246,20.22126 -11.9878,29.49989 -11.6238,52.27648 0.3402,21.28651 1.972,26.63399 11.6571,38.20185 l 5.4361,6.49272 -9.8174,4.47394 c -7.8128,3.5604 -20.6985,7.49816 -24.5365,7.49816 -0.3397,0 -2.7773,-3.3762 -5.417,-7.50267 z m 375.2939,4.71698 c -9.3155,-2.59144 -23.7947,-8.5524 -23.7947,-9.79607 0,-0.40068 2.0492,-3.41306 4.5537,-6.69419 8.385,-10.98487 13.6511,-30.13468 12.2961,-44.71326 -2.9194,-31.40861 -20.9955,-66.91845 -41.1878,-80.91169 -6.019,-4.17116 -5.9744,-4.44639 3.1561,-19.47915 5.9076,-9.72638 7.5207,-11.36471 16.2046,-16.45712 13.7657,-8.07249 15.5909,-8.30149 19.5378,-2.45143 13.7882,20.43683 56.2818,40.68708 85.1933,40.59877 15.5902,-0.0476 32.7895,-5.6632 42.582,-13.90299 2.227,-1.87396 4.3474,-3.40719 4.7119,-3.40719 0.8637,0 4.342,8.60398 9.0275,22.33065 l 3.7539,10.99732 -4.2479,3.14359 c -13.0455,9.65414 -37.2707,18.54075 -54.9145,20.14444 -12.814,1.16471 -38.3533,-3.79071 -50.8165,-9.85999 -2.8509,-1.38834 -5.3486,-2.36132 -5.5504,-2.16218 -0.2017,0.19914 0.886,3.28484 2.4173,6.8571 9.265,21.61434 11.9173,49.39529 6.4671,67.73866 -3.4199,11.51002 -14.6314,35.32015 -18.0431,38.31828 -2.2913,2.01356 -3.1312,1.99183 -11.3464,-0.29355 z m -241.2227,-23.0964 c -4.7973,-3.43255 -23.9322,-16.33094 -31.9053,-21.50666 -13.3221,-8.64789 -49.066,-19.24597 -65.0872,-19.29834 -10.0991,-0.033 -10.5165,-0.73547 -7.659,-12.88883 1.348,-5.73325 4.0173,-13.6408 5.9319,-17.57234 l 3.4809,-7.14826 7.3334,0.88508 c 28.5499,3.44575 56.6413,12.20759 73.7349,22.9983 2.8081,1.77267 7.3165,4.45327 10.0187,5.9569 2.7022,1.50362 9.2532,5.82139 14.5579,9.59505 10.3047,7.33057 10.7575,8.29058 8.2203,17.42891 -1.1921,4.29377 -9.7684,19.77464 -13.1815,23.79359 -0.4801,0.56538 -2.9304,-0.44414 -5.445,-2.2434 z m 112.1068,-4.10022 c -4.2929,-6.23963 -12.0121,-23.19147 -12.0121,-26.37949 0,-2.28718 29.1571,-21.52128 43.4272,-28.64764 15.4238,-7.70251 33.8048,-13.37592 59.6266,-18.40414 13.7851,-2.68435 13.077,-3.12426 19.445,12.08024 4.144,9.8943 6.3489,21.31868 4.3527,22.55239 -0.6588,0.40717 -7.5535,1.63249 -15.3215,2.72293 -31.9183,4.48053 -52.7514,12.9117 -77.4863,31.35871 -7.8904,5.88462 -15.1493,10.69931 -16.1309,10.69931 -0.9816,0 -3.6369,-2.69204 -5.9007,-5.98231 z m -137.3455,-65.26415 c -3.3,-1.71726 -8.5634,-3.88832 -11.6965,-4.82457 -4.3901,-1.31191 -5.8711,-2.49266 -6.4582,-5.14896 -3.7377,-16.91231 -8.9053,-31.03957 -17.5723,-48.03933 -5.4004,-10.59262 -11.1211,-20.9145 -12.7126,-22.93752 -2.6847,-3.41253 -18.4415,-13.67132 -30.8937,-20.11405 -9.4085,-4.86788 -34.1829,-13.48102 -43.2211,-15.02636 -6.175,-1.05579 -6.2426,-1.12341 -7.9672,-7.97231 -0.8339,-3.31185 -2.7055,-7.97205 -4.159,-10.356 -3.4816,-5.71028 -3.3399,-8.70419 0.693,-14.63914 10.5666,-15.55011 27.4201,-63.05745 26.1439,-73.69533 -1.665,-13.87872 -13.4202,-45.67822 -23.3739,-63.22973 l -7.1247,-12.56307 4.5045,-9.39932 c 2.4775,-5.16963 4.5045,-10.44514 4.5045,-11.72336 0,-3.07081 2.6353,-4.34561 15.7105,-7.59985 6.0172,-1.49759 18.5003,-6.3443 27.7402,-10.77045 9.2399,-4.42616 17.0995,-8.04756 17.4658,-8.04756 0.3662,0 4.3599,-2.43255 8.8747,-5.40567 6.2712,-4.12975 9.7226,-7.74688 14.6224,-15.32468 7.6637,-11.85233 21.0776,-42.67904 25.0827,-57.64294 2.7108,-10.12857 3.1059,-10.77637 7.0214,-11.51285 2.2819,-0.42921 7.8011,-2.50868 12.2649,-4.62104 l 8.116,-3.84065 7.3526,4.17391 c 4.044,2.29565 8.1918,4.83364 9.2174,5.63997 2.3705,1.8637 22.8171,10.0297 35.8647,14.32367 14.0962,4.63907 23.5042,6.61143 27.7141,5.81019 23.1017,-4.39676 56.427,-17.17279 71.4377,-27.38728 3.804,-2.58856 3.8442,-2.58725 10.6666,0.34769 3.7666,1.62032 9.4013,3.75413 12.5216,4.7418 5.0239,1.5902 5.8332,2.41977 7.0698,7.24682 4.6477,18.14295 10.212,32.59013 18.7939,48.79627 7.955,15.02239 14.9302,25.09602 18.1897,26.26998 1.2503,0.45031 3.7733,1.84615 5.6066,3.10186 13.5297,9.26695 45.9355,23.03413 61.8777,26.28793 4.5401,0.92662 5.4417,1.74586 7.0021,6.36263 0.9851,2.91448 3.3812,8.38093 5.3247,12.14766 l 3.5335,6.8486 -2.7176,4.48473 c -11.7328,19.36216 -18.9326,36.62594 -24.4325,58.58448 l -4.0967,16.35642 2.2875,9.43859 c 4.7624,19.65107 16.2537,48.47043 23.7874,59.65737 5.2185,7.74892 5.6438,9.84461 2.7687,13.64274 -1.0525,1.3905 -3.1814,6.33769 -4.7309,10.99375 l -2.8171,8.46557 -7.5601,2.08099 c -14.5,3.99132 -20.9788,6.21739 -33.56,11.53109 -11.2189,4.7383 -28.9662,14.35727 -34.7122,18.81388 -7.1364,5.53492 -25.6806,44.2307 -31.3511,65.41945 -1.7612,6.58131 -3.6675,12.38878 -4.2362,12.90549 -0.5686,0.51671 -3.4338,1.6971 -6.3672,2.6231 -2.9333,0.926 -8.0947,3.11505 -11.4698,4.86454 l -6.1365,3.18091 -8.5301,-5.17054 c -16.8613,-10.22038 -44.4577,-20.79045 -62.9772,-24.12171 -13.1766,-2.37018 -38.0634,4.55503 -65.553,18.24136 -6.6,3.28595 -13.5927,7.1001 -15.5392,8.47587 -4.3679,3.08712 -4.4386,3.08265 -11.7942,-0.74504 z m 90.0141,-46.14358 3.6527,-14.72337 6.1666,0.83755 c 9.9463,1.35092 40.2404,10.63971 54.1618,16.60711 3.4243,1.4678 6.4111,2.66874 6.6375,2.66874 0.2264,0 0.8108,-1.59078 1.2988,-3.53506 2.7404,-10.91854 26.2875,-53.97077 31.1691,-56.98773 0.6288,-0.38862 6.4884,2.48647 13.0213,6.38911 6.533,3.90263 12.0584,6.94895 12.2788,6.76958 0.2204,-0.17936 -2.6296,-5.45652 -6.3333,-11.72701 -3.7037,-6.27049 -6.734,-12.031 -6.734,-12.80114 0,-3.48022 34.3148,-23.51174 51.6579,-30.1557 6.3893,-2.44765 9.2867,-4.19379 8.5609,-5.15929 -1.3376,-1.7793 -6.9119,-14.95623 -7.5973,-17.95898 -0.2721,-1.19192 -2.0617,-6.66713 -3.9769,-12.16713 -4.0302,-11.57367 -8.769,-33.59177 -7.506,-34.87559 0.772,-0.78469 15.732,-4.87272 26.1947,-7.15806 3.4842,-0.76105 2.4527,-1.28207 -8,-4.04065 -6.6,-1.74181 -13.3688,-3.18766 -15.0418,-3.21298 -1.6731,-0.0253 -3.3636,-0.88439 -3.7568,-1.90902 -1.8552,-4.83455 10.3493,-45.54851 18.3616,-61.25381 1.4427,-2.8279 2.4312,-5.30235 2.1967,-5.49877 -0.2345,-0.19641 -4.3264,-1.67817 -9.093,-3.29278 -15.3619,-5.20351 -51.9641,-25.65836 -51.9884,-29.05328 -0.01,-0.89555 2.7456,-6.2919 6.1155,-11.99189 9.6838,-16.3795 9.5182,-15.98841 5.7382,-13.55104 -1.7593,1.13436 -7.2433,4.31059 -12.1868,7.05828 -4.9435,2.7477 -9.3289,5.54716 -9.7453,6.22103 -0.4165,0.67387 -1.2369,1.22522 -1.8231,1.22522 -0.9691,0 -10.7768,-13.84021 -10.7768,-15.20767 0,-0.32011 -3.0477,-5.85931 -6.7727,-12.30933 -6.4103,-11.09963 -7.7417,-14.0554 -12.8306,-28.48301 -1.164,-3.3 -2.2253,-6.14586 -2.3584,-6.32414 -0.1332,-0.17828 -2.5963,0.80069 -5.4736,2.17549 -12.824,6.12748 -18.2743,8.26855 -28.7322,11.28711 -13.1905,3.80728 -31.8093,8.03107 -32.3765,7.3448 -1.2667,-1.53267 -7.456,-23.21613 -7.456,-26.12114 0,-6.0989 -1.8625,-1.89758 -5.3468,12.06126 l -3.389,13.57663 -5.2987,-0.21983 c -9.342,-0.38755 -53.5423,-13.9719 -58.9071,-18.10428 -2.5823,-1.98907 -3.943,-0.24723 -7.8114,9.99947 -2.0054,5.31188 -5.7367,13.85797 -8.2917,18.9913 -4.8881,9.82064 -18.4343,31.33334 -19.7301,31.33334 -1.1461,0 -19.5529,-10.86355 -22.2334,-13.12195 -4.0206,-3.38755 -4.214,-0.51528 -0.3575,5.31215 4.1506,6.27198 11.3657,18.35866 11.3657,19.03971 0,0.24524 -4.95,3.76866 -11,7.82983 -11.5464,7.75067 -26.8733,15.73305 -40.3334,21.00591 -4.4,1.72366 -8.4986,3.54264 -9.108,4.04217 -0.6094,0.49953 0.074,3.22963 1.5177,6.06688 4.2762,8.40118 17.0496,49.22688 17.8553,57.06822 0.3901,3.79676 0.1324,3.97951 -8.9316,6.33316 -5.1334,1.33297 -11.4334,2.78156 -14,3.2191 -6.6028,1.12555 -9.7586,3.11157 -5.028,3.16428 2.0012,0.0223 7.4013,1.20537 12,2.62903 4.5987,1.42367 10.0113,2.9351 12.028,3.35874 4.5557,0.95702 4.5764,1.98525 0.3933,19.60123 -3.749,15.78818 -6.7159,24.64672 -12.5848,37.57584 -2.278,5.01836 -4.1419,9.52142 -4.1419,10.00679 0,0.48538 3.75,2.24383 8.3334,3.90768 4.5833,1.66385 11.3333,4.56982 15,6.45772 14.0302,7.22388 35.3191,19.54646 36.7521,21.27313 1.1515,1.38751 0.3907,3.62596 -3.294,9.69173 -2.6353,4.33812 -4.7914,8.31639 -4.7914,8.84059 0,0.5242 -1.2409,2.69571 -2.7575,4.82558 -1.5166,2.12988 -2.4301,3.8725 -2.0301,3.8725 0.8775,0 12.9678,-6.50788 19.4542,-10.47163 2.5667,-1.56846 5.2667,-2.83058 6,-2.80472 2.499,0.0881 10.3376,12.26879 20.0277,31.12157 5.3207,10.3518 10.4273,21.34226 11.3481,24.42326 l 1.6741,5.60182 3.7724,-1.95077 c 9.3835,-4.8524 28.4725,-11.7298 42.5111,-15.31591 20.2564,-5.17444 20.8165,-5.14731 21.9454,1.06305 0.9706,5.33905 6.2584,24.33333 6.7741,24.33333 0.1697,0 1.9522,-6.62551 3.9612,-14.72336 z m 46.9859,-10.34318 c -9.0944,-0.47434 -9.0159,-0.18944 -4.8922,-17.75438 2.3557,-10.03379 3.378,-12.24738 6.7722,-14.66432 4.8252,-3.4358 6.2789,-2.9505 21.3579,7.1298 11.5681,7.73329 11.5218,6.3606 0.6224,18.44471 -7.0347,7.79933 -6.8059,7.7337 -23.8603,6.84419 z m -127.6852,-8.60013 c -4.3823,-4.58333 -7.9533,-8.63333 -7.9357,-9 0.067,-1.39072 15.5464,-11.76071 21.3197,-14.28226 4.6826,-2.04521 6.6145,-2.30833 8.6359,-1.17616 4.4099,2.46996 5.6666,5.0197 7.9346,16.09914 1.2039,5.88094 2.4722,12.04262 2.8185,13.69262 0.6182,2.94543 0.3984,3 -12.0878,3 h -12.7175 z m 41.6802,1.36344 c -0.7599,-0.93322 -2.0223,-5.85869 -2.8053,-10.94548 -1.6926,-10.99487 -9.0671,-30.08463 -11.622,-30.08463 -3.3043,0 -21.9783,9.55429 -26.1866,13.39794 -5.8946,5.38388 -11.1571,7.39109 -13.7457,5.24279 -1.1158,-0.92608 -4.9196,-7.29028 -8.4529,-14.14267 l -6.424,-12.45887 9.4541,-6.44584 c 11.0664,-7.54511 20.6641,-13.23539 28.1208,-16.67227 10.1786,-4.69148 29.3244,-11.86214 33.4669,-12.53438 4.0734,-0.66102 4.2823,-0.43161 9.5298,10.46873 9.9243,20.61514 15.5666,37.40543 19.4908,58.00087 l 1.8051,9.4735 -13.4796,3.56682 c -7.4139,1.96175 -14.445,3.85109 -15.6248,4.19854 -1.1798,0.34745 -2.7668,-0.13183 -3.5266,-1.06505 z m 60.3384,-0.57636 c -3.6667,-1.10221 -10.4138,-3.0052 -14.9936,-4.22888 l -8.3268,-2.22486 0.8004,-4.66667 c 2.9338,-17.10669 12.3597,-46.66295 19.0292,-59.66943 0.6573,-1.28181 2.3116,-4.63026 3.6763,-7.44098 1.3646,-2.81072 2.939,-5.401 3.4987,-5.75618 1.3446,-0.85341 14.3029,2.9496 24.3158,7.13622 19.7336,8.2511 50,25.28657 50,28.14255 0,0.62295 -2.6668,5.88506 -5.9262,11.69356 -3.2594,5.80851 -6.8299,12.20811 -7.9344,14.22133 l -2.0082,3.66041 -5.0656,-2.91537 c -2.7861,-1.60346 -6.6281,-4.18822 -8.5377,-5.74393 -5.678,-4.62561 -25.3671,-14.35802 -26.5636,-13.13051 -2.6822,2.75175 -7.1311,16.87397 -9.1759,29.12721 -1.5871,9.51065 -2.7815,13.39281 -4.1727,13.56221 -1.072,0.13053 -4.9491,-0.66447 -8.6157,-1.76668 z m -30,-42.32379 c 0,-0.84329 -0.6226,-6.49798 -1.3834,-12.56599 -2.1269,-16.96207 1.8335,-61.12519 5.8408,-65.1325 0.3536,-0.35362 1.2815,2.55463 2.0619,6.46279 0.7804,3.90815 1.8045,8.90574 2.2757,11.10574 1.4154,6.60764 2.079,43.41917 0.9364,51.94549 -1.0175,7.59284 -1.2571,7.98483 -5.3981,8.83161 -2.8904,0.59104 -4.3333,0.37555 -4.3333,-0.64714 z m -105.9349,-10.0246 c -0.4615,-0.7466 -5.8544,-4.09134 -11.9842,-7.43274 -14.8843,-8.11339 -15.2123,-8.58716 -10.8349,-15.6468 1.9413,-3.13087 5.3007,-8.09249 7.4653,-11.02582 2.1646,-2.93333 5.3927,-9.07621 7.1736,-13.65085 l 3.2378,-8.31751 -6.228,-2.80647 c -8.4306,-3.79895 -16.5567,-6.16152 -26.791,-7.78913 -4.7095,-0.74899 -9.1082,-1.90715 -9.7747,-2.57369 -0.727,-0.72696 0.1183,-5.4229 2.1125,-11.73568 1.8285,-5.78809 3.7515,-12.79963 4.2733,-15.5812 l 0.9488,-5.0574 5.5015,0.91945 c 17.8439,2.98221 46.8485,12.31501 62.4039,20.07967 l 11.569,5.77483 -1.2285,4.4493 c -5.3351,19.32228 -11.2058,32.4703 -23.4426,52.50184 -10.3719,16.97885 -12.9708,20.20766 -14.4018,17.8922 z m 212.0219,-8.71972 c -14.2229,-19.93161 -32.5182,-62.88854 -28.4815,-66.87397 2.4713,-2.43996 29.14,-14.10992 41.7278,-18.25971 7.9712,-2.62785 30.6552,-7.5853 34.7083,-7.5853 0.1975,0 1.1087,3.15 2.025,7 0.9163,3.85 3.0295,10.63996 4.6962,15.08879 1.7127,4.57191 2.5745,8.82613 1.9821,9.78467 -0.5765,0.93273 -6.1534,2.4499 -12.3931,3.37148 -12.4485,1.83859 -28.9914,7.13298 -29.9299,9.5788 -0.8487,2.21162 7.9955,20.32621 12.9761,26.57757 2.3072,2.89595 5.1071,7.02187 6.2218,9.16872 2.4336,4.68692 2.0128,5.10824 -12.2865,12.30073 -5.1333,2.58204 -10.2806,5.54242 -11.4383,6.5786 -1.1578,1.03619 -2.4551,1.88398 -2.883,1.88398 -0.4279,0 -3.5441,-3.87646 -6.925,-8.61436 z m -257.2387,-18.27894 -8.8484,-8.11861 v -12.49405 -12.49404 l 3.6667,0.0205 c 4.4255,0.0247 23.317,4.67512 27.0008,6.64662 6.372,3.41021 3.4053,13.90914 -7.9908,28.27889 l -4.9799,6.27932 z m 296.2053,0.0123 c -3.3093,-4.64879 -7.2767,-10.93246 -8.8165,-13.96369 -3.9409,-7.75845 -2.0132,-11.50652 7.7629,-15.09301 7.4134,-2.71973 22.8077,-5.62676 23.9573,-4.52405 0.3431,0.32918 0.4973,6.10796 0.3427,12.84174 l -0.2813,12.24323 -8.4741,8.47407 -8.474,8.47406 z m -222.2572,4.05127 -3.1833,-2.57764 4.4213,-5.5017 c 8.9879,-11.18416 26.0987,-28.09505 34.5716,-34.16761 13.2134,-9.47015 19.2882,-13.4736 19.7475,-13.01429 0.5674,0.56744 -9.7248,16.05786 -15.5636,23.42428 -5.4029,6.81643 -10.1523,11.62051 -23.4566,23.72683 -12.0502,10.96513 -12.6487,11.25864 -16.5369,8.11013 z m 155.9031,-0.0119 c -6.3259,-3.84702 -29.3829,-26.73091 -35.9727,-35.70265 -8.5079,-11.5831 -14.6643,-21.45576 -13.3796,-21.45576 4.7937,0 28.359,18.03387 42.0919,32.21177 17.9921,18.57509 20.6784,22.84468 15.5609,24.73282 -1.2834,0.4735 -2.6567,1.33515 -3.0519,1.91479 -0.3952,0.57964 -2.7571,-0.1858 -5.2486,-1.70097 z m -179.3662,-75.29338 c -8.9114,-1.32827 -9.6829,-1.76622 -10.2802,-5.83611 -0.7407,-5.0465 -0.993,-4.97972 22.9469,-6.07163 19.111,-0.87167 33.4709,0.23634 47,3.62651 10.1217,2.53635 9.0003,3.47673 -7.6667,6.42907 -8.5988,1.52316 -45.4105,2.83434 -52,1.85216 z m 170.6667,0.24049 c -0.7334,-0.30555 -7.4834,-1.63013 -15,-2.9435 -7.5167,-1.31337 -13.6667,-2.77532 -13.6667,-3.24876 0,-0.47345 4.95,-1.93151 11,-3.24013 8.054,-1.74209 17.4277,-2.41866 35,-2.52621 27.7846,-0.17005 30.7321,0.34146 31.7241,5.50549 0.3889,2.02452 0.5131,3.87798 0.2759,4.11877 -1.2637,1.28315 -46.6967,3.43293 -49.3333,2.33434 z m -217.219,-14.47426 c -0.4703,-3.13616 -1.7828,-7.48616 -2.9167,-9.66667 -1.1339,-2.1805 -2.5452,-6.54372 -3.1363,-9.69602 -1.3775,-7.34656 0.1814,-8.94984 9.8015,-10.08049 12.8609,-1.51155 32.8038,-7.72753 32.8038,-10.22458 0,-2.31093 -11.4689,-22.98442 -16.27,-29.32771 -7.5063,-9.91752 -7.0748,-11.06217 6.542,-17.35313 6.383,-2.94893 12.6111,-6.27186 13.8403,-7.38428 2.0398,-1.846 2.7874,-1.28961 8.5633,6.37287 12.1492,16.11752 32.1307,61.85475 29.1382,66.6967 -0.7232,1.17017 -13.9837,7.68367 -30.4805,14.97192 -7.5417,3.3319 -39.6539,11.3935 -45.3843,11.3935 -0.9162,0 -2.0254,-2.52879 -2.5013,-5.70211 z m 285.219,2.41201 c -6.6,-1.69184 -15.9,-4.10278 -20.6667,-5.35763 -9.5491,-2.51388 -41.3333,-17.13877 -41.3333,-19.01875 0,-3.20398 4.8791,-17.12094 10.4008,-29.66686 6.1612,-13.99899 24.7809,-44.60327 26.6229,-43.75889 13.2322,6.06542 28.3096,15.1396 28.3096,17.03783 0,0.60355 -2.3965,3.99745 -5.3255,7.542 -5.9992,7.25978 -13.9573,21.81243 -15.2275,27.84573 -0.8121,3.85744 -0.5678,4.1055 6.8554,6.96018 7.7784,2.99127 19.4676,6.1074 28.7677,7.66897 2.7885,0.46822 5.3924,1.69127 5.7863,2.71789 0.394,1.02662 -1.264,8.49351 -3.6843,16.5931 -3.1822,10.64888 -4.9689,14.6969 -6.453,14.61952 -1.1289,-0.0589 -7.4524,-1.49125 -14.0524,-3.18309 z m -164,-20.28745 c -12.3861,-6.61865 -37.5706,-28.95971 -48.1466,-42.71061 -7.0522,-9.16933 -8.0309,-12.37852 -3.7748,-12.37852 1.0568,0 1.9214,-0.6 1.9214,-1.33333 0,-3.08886 4.0187,-0.76428 14.6816,8.49237 15.9291,13.82834 28.8092,28.92521 38.5412,45.1743 3.2911,5.49497 2.7573,5.95137 -3.2228,2.75579 z m 56.7965,-2.08912 c 2.1072,-4.06025 18.5514,-25.66544 24.8132,-32.60089 2.7813,-3.08048 10.0949,-9.7996 16.2524,-14.93138 l 11.1954,-9.33049 2.5989,3.30395 c 2.3493,2.98673 2.409,3.59366 0.6217,6.32151 -3.0619,4.673 -21.2026,24.1135 -27.9536,29.95643 -6.6103,5.72115 -26.8847,20.28087 -28.2411,20.28087 -0.4642,0 -0.1433,-1.35 0.7131,-3 z m -27.8786,-13.66667 c -4.2429,-15.44111 -4.6913,-19.77679 -4.528,-43.783 0.094,-13.81398 0.4875,-26.11398 0.8744,-27.33333 0.479,-1.50922 2.0921,-2.17685 5.053,-2.09123 4.3273,0.12513 4.3548,0.16911 5.4242,8.66666 1.6917,13.4427 -0.046,49.68016 -2.9028,60.5409 l -2.4553,9.33333 z m -162.918,-14.50641 v -12.5064 l 8.8978,-8.04126 8.8978,-8.04126 3.8472,5.31085 c 7.2158,9.9612 13.4749,22.53346 11.9683,24.04007 -0.7715,0.77148 -1.1264,2.12271 -0.7887,3.00272 1.1314,2.9483 -17.152,8.67992 -27.8224,8.72198 l -5,0.0197 z m 312.0001,9.91698 c -14.0561,-2.92306 -16,-3.74625 -16,-6.77544 0,-1.3271 -0.6388,-2.62584 -1.4196,-2.8861 -1.7825,-0.59415 6.8669,-17.63374 12.0095,-23.65918 4.3166,-5.05755 4.102,-5.11955 15.0767,4.35679 8.4288,7.27797 8.742,8.40836 6.8027,24.55336 -0.9667,8.04813 -0.097,7.81527 -16.4693,4.41057 z m -191.3334,-29.3245 c -12.9306,-4.47502 -14.4886,-5.12116 -28.0198,-11.62009 -12.8499,-6.17174 -32.6468,-19.04951 -32.6468,-21.23651 0,-0.86329 0.9655,-2.371 2.1457,-3.35045 1.1802,-0.97946 4.6472,-6.85861 7.7046,-13.06478 3.0573,-6.20617 6.1733,-11.48878 6.9244,-11.73915 0.751,-0.25036 4.8256,2.23155 9.0545,5.51535 4.2289,3.28381 11.6973,7.86536 16.5965,10.18123 15.6682,7.40642 14.151,7.67471 18.0598,-3.19362 1.8946,-5.26793 4.0695,-13.61292 4.8331,-18.54442 1.8161,-11.72838 3.4172,-15.70431 6.315,-15.68247 1.3015,0.01 7.4664,1.80179 13.6997,3.98217 6.2333,2.18037 12.3833,3.97235 13.6667,3.98216 2.783,0.0213 2.7649,-0.7003 0.3273,13.08221 -2.2731,12.85217 -5.3374,24.05395 -8.6449,31.6023 -1.2853,2.93333 -3.9798,9.49836 -5.9877,14.58896 -4.3776,11.09842 -9.4469,19.45246 -11.7115,19.29983 -0.9074,-0.0612 -6.4499,-1.77239 -12.3166,-3.80272 z m 71.3953,0.91393 c -5.2317,-8.20481 -12.4439,-24.35654 -16.0908,-36.03504 -3.319,-10.62844 -9.1971,-34.98867 -9.2836,-38.47335 -0.012,-0.46294 2.8291,-1.54323 6.3125,-2.40065 3.4833,-0.85741 9.5058,-2.72864 13.3833,-4.15828 12.2942,-4.53291 13.6271,-3.66675 15.4916,10.06731 1.2053,8.87834 8.96,30.00001 11.0144,30.00001 3.7078,0 22.89,-9.85833 28.6832,-14.74119 3.4316,-2.89235 7.3316,-5.25472 8.6667,-5.24971 2.5352,0.01 7.3067,6.08649 9.6257,12.25941 0.7442,1.98101 2.9334,6.10521 4.8649,9.16489 4.1334,6.54778 4.6353,5.79905 -10.8465,16.18282 -14.7962,9.92391 -29.5693,17.15229 -47.1169,23.05406 -12.0704,4.05962 -12.3226,4.06528 -14.7045,0.32972 z m -90.7286,-56.64723 c -2.5667,-1.32216 -8.6819,-5.04681 -13.5894,-8.27701 -10.3911,-6.83954 -10.4186,-6.51351 1.5136,-17.89493 6.4297,-6.13286 8.8065,-7.62996 11.1261,-7.00807 1.6223,0.43495 6.7825,0.79901 11.4672,0.80903 l 8.5174,0.0182 -0.8849,8.63716 c -0.6857,6.69323 -3.4397,16.62539 -6.7253,24.25447 -0.053,0.12372 -1.5956,0.59398 -3.4274,1.04501 -2.0438,0.50322 -5.1337,-0.10874 -7.9973,-1.58386 z m 116.4673,0.98855 c -3.2524,-1.31217 -4.7094,-5.10571 -8.3246,-21.67466 l -2.5455,-11.66667 6.8681,-0.17906 c 17.6015,-0.4589 18.1796,-0.2765 27.2014,8.58419 4.5833,4.50148 8.3099,8.50184 8.2813,8.88969 -0.154,2.08815 -25.775,17.79087 -28.2066,17.28734 -0.2244,-0.0465 -1.6978,-0.60486 -3.2741,-1.24083 z m -302.2509,288.32536 c -0.8143,-9.95226 -5.35908,-30.40771 -9.54637,-42.96698 -4.01874,-12.0537 -18.11921,-36.34996 -28.87075,-49.74662 l -6.57505,-8.19267 3.05454,-2.37848 c 10.23291,-7.9681 29.1557,-15.73105 32.1957,-13.20807 7.42903,6.16555 30.89253,45.63516 35.37133,59.50072 3.4455,10.6664 10.3119,39.58972 11.475,48.33624 l 0.9324,7.01081 -8.46,3.93779 c -8.2321,3.83175 -22.1257,8.0406 -26.5424,8.0406 -1.7686,0 -2.3512,-1.98402 -3.0344,-10.33334 z m 481.7836,7.13091 c -6.3421,-1.78542 -20.9889,-8.49488 -21.9543,-10.05693 -1.0014,-1.6203 8.4936,-42.59328 12.5028,-53.95199 4.9733,-14.09044 12.1313,-27.68273 24.2553,-46.05779 8.6504,-13.1106 10.1432,-14.73087 13.5718,-14.73087 6.0801,0 31.591,13.3378 31.6153,16.52934 0,0.65781 -1.9655,3.65781 -4.3789,6.66667 -5.9407,7.4063 -13.9957,18.87766 -16.8268,23.96344 -1.2779,2.29564 -4.4904,8.07388 -7.1389,12.84055 -5.9827,10.76758 -10.8793,27.4361 -13.5872,46.25203 -3.0492,21.18797 -2.7597,20.42892 -7.7512,20.32465 -2.3693,-0.0495 -7.0079,-0.85009 -10.3079,-1.7791 z M 191.35309,626.30108 c -15.29072,-7.80227 -15.30347,-7.81439 -14.43858,-13.72197 2.34912,-16.04556 13.79897,-40.82812 24.2592,-52.50768 10.98862,-12.26953 31.28616,-25.52291 44.72717,-29.20482 l 5.23408,-1.43378 -17.3246,-8.50193 c -30.32773,-14.88314 -44.83455,-32.9733 -55.20616,-68.84267 -1.62851,-5.63206 -2.62624,-11.11229 -2.21717,-12.1783 1.48189,-3.86175 29.98278,-16.76747 32.179,-14.57125 0.42209,0.42209 0.76743,2.84782 0.76743,5.39052 0,7.14195 2.69464,14.73248 8.85103,24.93247 6.30447,10.44533 10.21557,14.42933 24.00105,24.44838 12.31684,8.95166 23.02888,13.71752 41.14789,18.30699 14.397,3.64668 24.8072,4.56952 36.6014,3.24464 l 5.9347,-0.66667 2.5913,8 c 3.54,10.92849 3.5672,30.77328 0.055,39.78993 l -2.5152,6.4566 -17.3334,0.33502 c -15.9816,0.3089 -31.90612,2.9518 -35.99999,5.97473 -0.73333,0.54149 -4.14713,2.02365 -7.58621,3.29368 -16.76158,6.18994 -36.05669,21.27946 -46.5597,36.4115 -4.37613,6.30484 -9.1443,20.20787 -9.17023,26.73855 -0.0241,6.06522 -3.41721,5.74585 -17.99757,-1.69394 z m 666.88394,5.15305 c -0.4969,-0.49696 -0.9106,-3.05356 -0.9193,-5.68133 -0.01,-2.62778 -0.8602,-7.94959 -1.8921,-11.82624 -8.3401,-31.33036 -56.3361,-59.65657 -99.7168,-58.85065 -10.1081,0.18778 -13.6133,-0.19784 -14.4822,-1.59324 -0.6305,-1.01255 -2.4192,-7.41537 -3.9749,-14.22849 -2.7505,-12.04606 -2.7658,-12.66901 -0.5562,-22.60081 3.7261,-16.74808 3.1015,-16.14579 15.9133,-15.34649 36.4927,2.2767 78.2703,-18.35096 97.2464,-48.01538 4.7754,-7.46504 6.8675,-13.58561 8.1598,-23.87146 0.7577,-6.03029 0.8935,-6.18958 4.416,-5.17933 5.0087,1.43646 23.0306,10.12345 26.0013,12.53321 3.3434,2.71212 2.0407,10.90809 -4.5372,28.54607 -6.0769,16.29447 -12.3328,26.14826 -23.4745,36.97515 -9.77,9.49389 -18.5931,15.06236 -33.5986,21.20471 -11.3212,4.63424 -11.7155,5.18371 -4.8218,6.71919 5.9994,1.33629 23.8925,11.4129 33.1705,18.68016 4.5077,3.53081 10.6716,9.79229 13.6974,13.9144 6.4813,8.82958 15.1146,24.49307 16.6242,30.16142 0.5859,2.2 1.9021,7 2.9248,10.66666 4.3154,15.47128 5.363,13.32258 -10.0426,20.59911 -15.3836,7.26619 -18.8326,8.4982 -20.1375,7.19334 z M 262.50695,485.18271 c -9.93676,-4.0875 -20.42755,-10.61731 -20.83159,-12.96627 -0.17863,-1.03845 3.91292,-7.5881 9.09234,-14.55477 11.2448,-15.12503 20.75589,-32.10456 24.66299,-44.02924 3.15949,-9.64292 7.89534,-32.39459 9.25114,-44.44356 l 0.8784,-7.80614 7.3814,0.92225 c 13.7768,1.7213 30.401,9.56265 29.2183,13.78181 -0.3456,1.23285 -1.3244,6.74154 -2.1752,12.24154 -4.5989,29.73129 -11.9864,49.5223 -28.3545,75.96156 -16.63883,26.87643 -15.88745,26.3374 -29.12328,20.89282 z m 524.52958,-4.00503 c -12.6845,-16.96138 -32.3032,-53.11706 -32.3534,-59.6248 -0.01,-1.15983 -1.2152,-5.95983 -2.6806,-10.66667 -4.0711,-13.07699 -7.8852,-37.00473 -6.123,-38.41305 5.7106,-4.56377 32.8772,-13.83273 34.8272,-11.8827 0.3192,0.31917 1.4976,7.57744 2.6187,16.12949 1.121,8.55204 2.6152,16.91249 3.3204,18.57878 0.7052,1.66628 2.2447,6.89489 3.4212,11.61914 3.9651,15.92284 14.949,36.19703 30.2886,55.90691 l 6.6126,8.49644 -3.8174,3.19813 c -5.3532,4.48486 -14.551,9.13588 -23.0593,11.66029 -3.9831,1.18179 -7.3467,2.1487 -7.4747,2.1487 -0.128,0 -2.6392,-3.2178 -5.5803,-7.15066 z m -425.2351,-85.84935 c -8.5406,-11.64273 -25.2098,-23.5722 -42.1483,-30.16374 -13.9128,-5.41412 -25.2465,-8.61388 -33.653,-9.50098 -17.707,-1.86855 -42.76925,4.4216 -50.73182,12.73273 -2.0719,2.16259 -4.22676,3.93199 -4.78858,3.93199 -1.37272,0 -6.01797,-10.42986 -10.08672,-22.64743 l -3.32383,-9.98077 4.19252,-3.50008 c 10.10794,-8.43848 31.29336,-16.72517 50.73843,-19.84636 15.2484,-2.44758 36.4342,1.59733 59.0249,11.26938 2.1214,0.90827 2.2052,0.62622 0.8344,-2.80922 -0.8381,-2.10037 -2.7161,-6.81886 -4.1734,-10.48552 -5.4475,-13.7069 -6.5708,-19.86615 -6.6872,-36.66667 -0.1092,-15.75978 0.9418,-22.97338 4.7593,-32.66667 3.1986,-8.12181 14.5757,-29.95039 16.3986,-31.46332 1.4697,-1.21974 4.292,-0.75167 12.8631,2.13334 11.6871,3.93384 20.9803,8.17044 20.9803,9.56455 0,0.46588 -1.4134,2.70369 -3.1409,4.97291 -11.3733,14.93958 -15.6685,38.98069 -10.7867,60.37645 2.5779,11.29886 9.3374,30.21665 13.0117,36.41608 7.9863,13.47477 19.6731,26.76104 30.0954,34.21443 0.9478,0.6778 -2.9715,9.05356 -8.0262,17.15272 -3.6862,5.90623 -7.2394,9.48556 -13.417,13.51558 -15.7364,10.26578 -16.8116,10.43493 -21.935,3.4506 z m 332.3382,2.95983 c -13.1589,-6.82691 -27.461,-21.6089 -31.12,-32.16418 -1.4327,-4.133 -1.2483,-4.41761 10.8673,-16.7718 10.5134,-10.72053 13.3385,-14.60944 19.2234,-26.46232 9.0526,-18.23319 12.1124,-29.26461 13.0997,-47.2282 1.1231,-20.43325 -3.2241,-35.88302 -13.1966,-46.9013 -1.4443,-1.59572 -2.1908,-3.60538 -1.659,-4.46592 2.7889,-4.51256 30.0225,-13.87218 32.5544,-11.18826 3.6452,3.86424 15.3509,26.78883 18.3254,35.88881 3.0116,9.21355 3.4956,13.02799 3.5526,28 0.071,18.57402 -2.0358,28.39239 -9.3404,43.53421 -1.794,3.71875 -3.0783,6.92054 -2.854,7.1151 0.2242,0.19456 6.4077,-2.0499 13.7411,-4.98769 17.8131,-7.13605 28.6252,-8.64558 47.1617,-6.58442 17.9693,1.99809 26.7646,4.96922 42.5124,14.36099 12.0518,7.18758 12.324,7.4598 11.6246,11.62752 -1.6371,9.75632 -8.2761,26.39958 -11.2685,28.24896 -0.7377,0.45591 -3.5963,-0.9744 -6.3524,-3.17848 -2.7561,-2.20407 -8.6111,-5.68638 -13.0111,-7.73846 -7.6203,-3.55395 -8.9178,-3.72932 -27.3334,-3.69444 -18.226,0.0345 -20.0353,0.27978 -31.5897,4.28214 -13.8037,4.7815 -27.1572,11.00801 -33.0263,15.39964 -2.1671,1.62155 -8.765,7.70268 -14.6621,13.51361 -5.897,5.81094 -11.4221,10.70055 -12.278,10.8658 -0.8558,0.16524 -3.0929,-0.49684 -4.9711,-1.47131 z m -174.1395,-73.92042 c -15.3945,-3.56339 -14.3134,-2.14329 -13.6134,-17.88209 0.6336,-14.24709 -0.7895,-22.98946 -6.498,-39.91874 -3.0824,-9.1411 -10.5833,-24.33157 -14.087,-28.52828 -1.3576,-1.626 -4.2682,-5.45265 -6.4682,-8.50367 -8.5961,-11.92123 -28.5439,-23.84944 -41.6424,-24.90086 -10.5139,-0.84396 -10.5519,-1.29841 -1.6703,-19.94069 l 6.6873,-14.0365 6.3127,0.84315 c 3.4719,0.46374 11.9182,2.93009 18.7694,5.48079 29.5002,10.98292 46.5513,26.86949 60.2876,56.17008 3.2624,6.95905 5.8331,11.01917 6.2328,9.84406 6.7686,-19.9007 17.0658,-35.256 32.9827,-49.18458 10.9513,-9.58318 34.6891,-20.34277 49.2978,-22.34512 l 5.7665,-0.79038 5.4351,9.16004 c 5.3122,8.95289 9.5408,18.99651 9.5408,22.661 0,1.21086 -1.6088,1.83237 -4.7429,1.83237 -12.925,0 -28.3169,7.98185 -41.6006,21.57306 -12.2198,12.50259 -22.3476,31.61384 -27.7831,52.42694 -3.0021,11.49569 -3.403,15.31935 -2.9082,27.74312 0.6738,16.92251 1.3796,16.04887 -15.3414,18.99157 -12.8344,2.25871 -12.1079,2.27895 -24.9572,-0.69527 z m -142.8081,-9.03941 c -4.9071,-6.06436 -9.8227,-19.56775 -10.7626,-29.56558 l -0.4293,-4.56557 14,-2.34464 c 42.1775,-7.06363 57.8129,-13.68935 87.088,-36.90472 8.5609,-6.78887 9.2291,-7.07917 11.5206,-5.0054 4.6533,4.21117 14.6507,25.60501 14.7054,31.46849 0.016,1.74222 -6.576,7.91741 -8.4521,7.91741 -0.3186,0 -5.4452,3.29448 -11.3925,7.32107 -24.4616,16.56185 -43.0442,23.89494 -79.3484,31.31269 -15.9037,3.24946 -14.6186,3.22166 -16.9291,0.36625 z m 296.8081,-0.4515 c -26.7552,-4.8724 -46.3882,-11.21262 -61.1051,-19.73309 -6.4745,-3.74848 -12.0562,-6.81541 -12.4038,-6.81541 -0.8032,0 -21.6961,-14.37656 -24.8749,-17.1166 -2.5034,-2.15783 -2.3239,-5.97061 0.6691,-14.21674 1.9316,-5.32173 12.0548,-22 13.3533,-22 0.5638,0 5.0758,3.27039 10.0266,7.26753 12.0413,9.72179 39.0824,25.06056 49.0015,27.79562 20.6899,5.70496 29.0994,7.58229 40.0739,8.94604 6.5189,0.81007 12.0097,1.62994 12.2017,1.82193 1.0968,1.09683 -4.3273,21.29853 -7.3842,27.50222 -3.2915,6.67949 -4.0273,7.35247 -8.2525,7.54795 -2.5514,0.11804 -7.6389,-0.33172 -11.3056,-0.99945 z"
         id="path2" />
    </mask>
    <filter
       id="mask-powermask-path-effect2_inverse"
       inkscape:label="filtermask-powermask-path-effect2"
       style="color-interpolation-filters:sRGB"
       height="100"
       width="100"
       x="-50"
       y="-50">
      <feColorMatrix
         id="mask-powermask-path-effect2_primitive1"
         values="1"
         type="saturate"
         result="fbSourceGraphic" />
      <feColorMatrix
         id="mask-powermask-path-effect2_primitive2"
         values="-1 0 0 0 1 0 -1 0 0 1 0 0 -1 0 1 0 0 0 1 0 "
         in="fbSourceGraphic" />
    </filter>
  </defs>
  <sodipodi:namedview
     id="namedview1"
     pagecolor="#ffffff"
     bordercolor="#000000"
     borderopacity="0.25"
     inkscape:showpageshadow="2"
     inkscape:pageopacity="0.0"
     inkscape:pagecheckerboard="0"
     inkscape:deskcolor="#d1d1d1"
     inkscape:zoom="0.26490212"
     inkscape:cx="366.17298"
     inkscape:cy="524.72211"
     inkscape:window-width="1472"
     inkscape:window-height="853"
     inkscape:window-x="0"
     inkscape:window-y="37"
     inkscape:window-maximized="1"
     inkscape:current-layer="g1" />
  <g
     inkscape:groupmode="layer"
     inkscape:label="Image"
     id="g1">
    <path
       style="fill:#000000;stroke:#000000;stroke-width:3.77269"
       id="rect1"
       width="1062.8943"
       height="1062.8943"
       x="1.886345"
       y="1.886345"
       mask="url(#mask-powermask-path-effect2)"
       inkscape:path-effect="#path-effect2"
       sodipodi:type="rect"
       d="M 1.886345,1.886345 H 1064.7806 V 1064.7806 H 1.886345 Z" />
  </g>
</svg>
