<?xml version="1.0" encoding="UTF-8" standalone="no"?>
<!-- Created with Inkscape (http://www.inkscape.org/) -->

<svg
   width="16.816914mm"
   height="29.448124mm"
   viewBox="0 0 16.816914 29.448124"
   version="1.1"
   id="svg1"
   xmlns="http://www.w3.org/2000/svg"
   xmlns:svg="http://www.w3.org/2000/svg">
  <defs
     id="defs1" />
  <g
     id="layer1"
     transform="translate(-92.674181,-104.70372)">
    <g
       id="g1467"
       transform="matrix(0.26458333,0,0,0.26458333,-48.142353,-64.431174)"
       style="fill:#1a1a1a">
      <path
         class="cls-29"
         d="m 532.22,687.07 v -0.63 c 0,0 13.91,0 13.91,0 v -43.08 c 0,0 -0.93,0 -0.93,0 -4.01,3.92 -9.58,3.88 -9.87,3.88 v 2.82 c 2.42,0 5.49,-0.98 7.52,-2.22 v 35.26 c 0,0 -10.62,0 -10.62,0 v 6.6 c 0,0 27.85,0 27.85,0 v -2.64 c 0,0 -27.85,0 -27.85,0 z"
         id="path1462"
         style="fill:#1a1a1a;stroke-width:0px" />
      <path
         class="cls-29"
         d="m 579.85,684.21 h -0.13 c -5.29,0 -8.43,-3.2 -8.43,-7.45 0,-4.31 3.59,-6.99 8.5,-9.87 4.9,2.88 8.5,5.56 8.5,9.87 0,4.25 -3.14,7.45 -8.43,7.45 m 1.33,-19.82 -1.24,-0.66 -0.16,0.1 -0.16,-0.1 -1.24,0.66 c -5.62,3.01 -11.1,6.44 -11.1,12.46 0,6.05 5.11,10.28 12.43,10.28 h 0.15 c 7.32,0 12.43,-4.23 12.43,-10.28 0,-6.02 -5.48,-9.46 -11.1,-12.46"
         id="path1463"
         style="fill:#1a1a1a;stroke-width:0px" />
      <path
         class="cls-29"
         d="m 572.42,651.41 c 0,-3.68 2.72,-6.46 7.31,-6.46 h 0.11 c 4.59,0 7.31,2.78 7.31,6.46 0,3.74 -3.12,6.06 -7.37,8.56 -4.25,-2.49 -7.37,-4.82 -7.37,-8.56 m 7.38,11.52 0.15,0.08 1.11,-0.65 c 4.52,-2.65 8.94,-5.7 8.94,-11.1 0,-5.44 -4.17,-9.24 -10.13,-9.24 h -0.12 c -5.97,0 -10.13,3.8 -10.13,9.24 0,5.4 4.41,8.44 8.94,11.1 l 1.11,0.65 0.15,-0.08 z"
         id="path1464"
         style="fill:#1a1a1a;stroke-width:0px" />
      <path
         class="cls-29"
         d="m 579.86,687.76 h -0.15 c -7.69,0 -13.05,-4.49 -13.05,-10.91 0,-6.37 5.65,-9.93 11.43,-13.02 l 0.9,-0.48 -0.78,-0.46 c -4.68,-2.75 -9.25,-5.91 -9.25,-11.64 0,-5.81 4.43,-9.87 10.76,-9.87 h 0.12 c 6.34,0 10.76,4.06 10.76,9.87 0,5.74 -4.57,8.9 -9.25,11.64 l -0.78,0.46 0.9,0.48 c 5.78,3.09 11.43,6.65 11.43,13.02 0,6.42 -5.37,10.91 -13.05,10.91 m 5.88,-24 c 4.77,-2.94 8.17,-6.47 8.17,-12.55 0,-6.21 -4.64,-11.96 -14.12,-11.96 -9.48,0 -14.12,5.75 -14.12,11.96 0,6.08 3.4,9.61 8.17,12.55 -5.62,3.07 -10.07,6.67 -10.07,13.14 0,7.32 5.43,12.81 16.01,12.81 10.59,0 16.01,-5.49 16.01,-12.81 0,-6.47 -4.44,-10.07 -10.07,-13.14"
         id="path1465"
         style="fill:#1a1a1a;stroke-width:0px" />
      <path
         class="cls-29"
         d="m 568.08,748.18 v -0.42 c 0,-9.41 8.19,-15.67 8.27,-15.73 4.99,-3.55 11.81,-8.4 13.46,-15.18 0.81,-3.33 0.21,-6.6 -1.66,-8.97 -1.74,-2.21 -4.42,-3.42 -7.55,-3.42 -8.29,0 -11.29,8.48 -11.67,9.67 l 3.16,1.38 c 1.96,-4.71 4.84,-7.39 8.63,-7.39 3.99,0 6.14,2.22 6.14,6.34 0,13.53 -21.64,13.27 -21.64,35.04 v 1.05 c 0,0 29.09,0 29.09,0 v -2.36 c 0,0 -26.25,0 -26.25,0 z"
         id="path1466"
         style="fill:#1a1a1a;stroke-width:0px" />
      <path
         class="cls-29"
         d="m 570.73,708.85 c 2.52,-3.42 5.94,-5.23 9.88,-5.23 3.4,0 6.31,1.33 8.21,3.75 2.02,2.58 2.68,6.11 1.81,9.69 -1.72,7.08 -8.7,12.03 -13.78,15.65 -0.07,0.05 -7.68,5.88 -7.92,14.63 h 25.4 c 0,0 0,-3.4 0,-3.4 h -20.46 c 0.2,-11.37 20.46,-14.18 20.46,-29.81 0,-7.58 -4.64,-12.88 -13.14,-12.88 -7.65,0 -12.42,4.51 -15.36,11.5 l 2.34,1.03 c 0.23,-0.71 0.99,-2.81 2.56,-4.94"
         id="path1467"
         style="fill:#1a1a1a;stroke-width:0px" />
      <path
         id="polygon1467"
         style="stroke-width:0px"
         class="cls-29"
         d="m 532.22,708.97 h 19.94 l -16.34,41.57 h 3.77 l -0.29,-0.11 16.42,-41.83 v -2.65 h -23.5 v -0.63 h 24.13 v 3.4 l -0.02,0.05 -16.4,41.77 h 3.67 l 16.47,-42.23 v -6.14 h -27.85 z" />
    </g>
  </g>
</svg>
