<?xml version="1.0" encoding="UTF-8" standalone="no"?>
<!-- Created with Inkscape (http://www.inkscape.org/) -->

<svg
   width="12.800195mm"
   height="22.096634mm"
   viewBox="0 0 12.800195 22.096634"
   version="1.1"
   id="svg1"
   xmlns="http://www.w3.org/2000/svg"
   xmlns:svg="http://www.w3.org/2000/svg">
  <defs
     id="defs1" />
  <g
     id="layer1"
     transform="translate(-114.60131,-156.81031)">
    <path
       class="cls-29"
       d="m 115.26175,158.30414 c 0.01,0 1.13515,0.01 1.90392,-0.74987 l 0.018,-0.0178 h 0.36436 c 0,0 0,8.64633 0,8.64633 h 2.66467 c 0,0 0,-0.65887 0,-0.65887 h -1.95595 c 0,0 0,-8.49001 0,-8.49001 h -1.45346 c -0.36637,0.40165 -0.90291,0.59555 -1.54355,0.62127 v 0.7103 c 0,0 0,-0.0613 0,-0.0613 z"
       id="path1461"
       style="fill:none;stroke:#000000;stroke-width:0.075222;stroke-dasharray:none;stroke-opacity:1" />
    <path
       class="cls-29"
       d="m 114.63914,166.30941 v -0.12465 c 0,0 2.78479,0 2.78479,0 v -8.52365 c 0,0 -0.18619,0 -0.18619,0 -0.8028,0.7756 -1.91792,0.76769 -1.97599,0.76769 v 0.55795 c 0.48449,0 1.09911,-0.1939 1.50552,-0.43924 v 6.97641 c 0,0 -2.12614,0 -2.12614,0 v 1.30585 c 0,0 5.5756,0 5.5756,0 v -0.52234 c 0,0 -5.5756,0 -5.5756,0 z"
       id="path1462"
       style="fill:none;stroke:#000000;stroke-width:0.075222;stroke-dasharray:none;stroke-opacity:1" />
    <path
       class="cls-29"
       d="m 124.17469,165.74354 h -0.026 c -1.05905,0 -1.68768,-0.63314 -1.68768,-1.47402 0,-0.85277 0.71871,-1.38302 1.70171,-1.95285 0.98097,0.56983 1.70169,1.10008 1.70169,1.95285 0,0.84088 -0.62862,1.47402 -1.68768,1.47402 m 0.26626,-3.92151 -0.24824,-0.13059 -0.032,0.0198 -0.032,-0.0198 -0.24825,0.13059 c -1.12513,0.59555 -2.22223,1.2742 -2.22223,2.4653 0,1.19702 1.02303,2.03395 2.4885,2.03395 h 0.03 c 1.46547,0 2.4885,-0.83693 2.4885,-2.03395 0,-1.1911 -1.0971,-1.87173 -2.22223,-2.4653"
       id="path1463"
       style="fill:none;stroke:#000000;stroke-width:0.075222;stroke-dasharray:none;stroke-opacity:1" />
    <path
       class="cls-29"
       d="m 122.68721,159.25386 c 0,-0.72811 0.54453,-1.27816 1.46346,-1.27816 h 0.022 c 0.9189,0 1.46346,0.55005 1.46346,1.27816 0,0.73998 -0.62463,1.19901 -1.47548,1.69365 -0.85086,-0.49266 -1.47549,-0.95367 -1.47549,-1.69365 m 1.4775,2.27931 0.03,0.0158 0.22222,-0.1286 c 0.90491,-0.52432 1.78979,-1.12779 1.78979,-2.19621 0,-1.07634 -0.83484,-1.82819 -2.02803,-1.82819 h -0.024 c -1.1952,0 -2.02803,0.75185 -2.02803,1.82819 0,1.06842 0.88288,1.66991 1.78979,2.19621 l 0.22222,0.1286 0.03,-0.0158 z"
       id="path1464"
       style="fill:none;stroke:#000000;stroke-width:0.075222;stroke-dasharray:none;stroke-opacity:1" />
    <path
       class="cls-29"
       d="m 124.17669,166.44593 h -0.03 c -1.53954,0 -2.61261,-0.88837 -2.61261,-2.1586 0,-1.26036 1.13113,-1.96472 2.28828,-2.5761 l 0.18019,-0.095 -0.15616,-0.091 c -0.93694,-0.5441 -1.85185,-1.16932 -1.85185,-2.30304 0,-1.14954 0.88689,-1.95284 2.15415,-1.95284 h 0.024 c 1.26927,0 2.15415,0.8033 2.15415,1.95284 0,1.13569 -0.91491,1.76092 -1.85184,2.30304 l -0.15617,0.091 0.18019,0.095 c 1.15716,0.61138 2.28829,1.31574 2.28829,2.5761 0,1.27023 -1.07508,2.1586 -2.61262,2.1586 m 1.17717,-4.74855 c 0.95497,-0.58169 1.63565,-1.28012 1.63565,-2.4831 0,-1.22868 -0.92893,-2.36636 -2.82683,-2.36636 -1.89791,0 -2.82684,1.13768 -2.82684,2.36636 0,1.20298 0.68069,1.90141 1.63565,2.4831 -1.12513,0.60742 -2.01602,1.3197 -2.01602,2.59983 0,1.44831 1.08708,2.53454 3.2052,2.53454 2.12013,0 3.20521,-1.08623 3.20521,-2.53454 0,-1.28013 -0.88889,-1.99241 -2.01602,-2.59983"
       id="path1465"
       style="fill:none;stroke:#000000;stroke-width:0.075222;stroke-dasharray:none;stroke-opacity:1" />
    <path
       class="cls-29"
       d="m 121.81833,178.40041 v -0.0831 c 0,-1.86183 1.63964,-3.1004 1.65566,-3.11227 0.99899,-0.7024 2.36436,-1.662 2.6947,-3.00347 0.16216,-0.65886 0.042,-1.30585 -0.33234,-1.77477 -0.34834,-0.43726 -0.88488,-0.67667 -1.51151,-0.67667 -1.65966,0 -2.26027,1.67782 -2.33634,1.91327 l 0.63262,0.27304 c 0.39241,-0.9319 0.96899,-1.46215 1.72775,-1.46215 0.7988,0 1.22922,0.43924 1.22922,1.25441 0,2.677 -4.33233,2.62555 -4.33233,6.93288 v 0.20775 c 0,0 5.82383,0 5.82383,0 v -0.46694 c 0,0 -5.25527,0 -5.25527,0 z"
       id="path1466"
       style="fill:none;stroke:#000000;stroke-width:0.075222;stroke-dasharray:none;stroke-opacity:1" />
    <path
       class="cls-29"
       d="m 122.34886,170.61872 c 0.50451,-0.67667 1.18919,-1.03479 1.97798,-1.03479 0.68069,0 1.26327,0.26316 1.64365,0.74196 0.4044,0.51048 0.53654,1.20891 0.36236,1.91723 -0.34434,1.40082 -1.74175,2.38021 -2.75877,3.09645 -0.014,0.01 -1.53753,1.1634 -1.58558,2.89464 h 5.08509 c 0,0 0,-0.67271 0,-0.67271 h -4.09611 c 0.04,-2.24963 4.09611,-2.8056 4.09611,-5.8981 0,-1.49975 -0.92892,-2.54839 -2.63063,-2.54839 -1.53154,0 -2.48649,0.89233 -3.07508,2.27535 l 0.46847,0.20379 c 0.046,-0.14047 0.1982,-0.55597 0.51251,-0.97741"
       id="path1467"
       style="fill:none;stroke:#000000;stroke-width:0.075222;stroke-dasharray:none;stroke-opacity:1" />
    <polygon
       class="cls-29"
       points="539.3,750.43 555.72,708.6 555.72,705.95 532.22,705.95 532.22,705.32 556.35,705.32 556.35,708.72 556.33,708.77 539.93,750.54 543.6,750.54 560.07,708.31 560.07,702.17 532.22,702.17 532.22,708.97 552.16,708.97 535.82,750.54 539.59,750.54 "
       id="polygon1467"
       style="fill:none;stroke:#000000;stroke-width:0.377953;stroke-dasharray:none;stroke-opacity:1"
       transform="matrix(0.20020059,0,0,0.19785631,8.0883749,30.368278)" />
  </g>
</svg>
