<?xml version="1.0" standalone="no"?>
<!DOCTYPE svg PUBLIC "-//W3C//DTD SVG 1.1//EN"
  "http://www.w3.org/Graphics/SVG/1.1/DTD/svg11.dtd">
<svg width="37mm" height="36.99999999999999mm" viewBox="-18.5 -18.499999999999996 37 36.99999999999999" xmlns="http://www.w3.org/2000/svg" version="1.1">
	<title>svgOutput</title>
	<desc>made with tinkercad</desc>
<path d="M 17.415000915527344 -11.758999824523924 L 17.5 -10.694000244140623 L 17.5 1.1102230246251565e-16 L 17.5 14.50300025939941 L 17.5 17.499999999999996 L 15.70199966430664 17.499999999999996 L 0 17.499999999999996 L -15.701000213623047 17.499999999999996 L -17.5 17.499999999999996 L -17.5 1.1102230246251565e-16 L -17.5 -15.703000068664547 L -17.5 -17.499999999999996 L 0 -17.499999999999996 L 10.550999641418457 -17.499999999999996 L 11.637999534606934 -17.416000366210934 L 12.699000358581543 -17.166999816894528 L 13.706000328063965 -16.757999420166012 L 14.63599967956543 -16.20000076293945 L 15.230535507202148 -15.703000068664547 L 15.46500015258789 -15.506999969482418 L 15.70199966430664 -15.2348518371582 L 16.17300033569336 -14.694000244140621 L 16.743000030517578 -13.784000396728512 L 17.15999984741211 -12.796999931335446 L 17.415000915527344 -11.758999824523924 M 15.62600040435791 -10.550999641418455 L 15.397000312805176 -11.48299980163574 L 15.02299976348877 -12.368000030517575 L 14.51200008392334 -13.185000419616696 L 13.87600040435791 -13.913999557495114 L 13.131999969482422 -14.536000251770016 L 12.29800033569336 -15.03699970245361 L 11.394000053405762 -15.404000282287594 L 10.442999839782715 -15.6269998550415 L 9.468000411987305 -15.703000068664547 L 0 -15.703000068664547 L -15.701000213623047 -15.703000068664547 L -15.701000213623047 1.1102230246251565e-16 L -15.701000213623047 15.701000213623043 L 0 15.701000213623043 L 15.70199966430664 15.701000213623043 L 15.70199966430664 14.50300025939941 L 15.70199966430664 1.1102230246251565e-16 L 15.70199966430664 -9.5959997177124 L 15.62600040435791 -10.550999641418455 z" fill="none" stroke="rgb(255,0,0)" stroke-width="0.001mm" />
</svg>