999
FreeCAD v1.0 39109 (Git)
  0
SECTION
  2
HEADER
  9
$ACADVER
  1
AC1014
  9
$ACADMAINTVER
 70
     9
  9
$DWGCODEPAGE
  3
ANSI_1252
  9
$TEXTSTYLE
  7
STANDARD
  9
$DIMSTYLE
  2
STANDARD
  9
$DIMTXSTY
  7
STANDARD
  9
$CMLSTYLE
  2
STANDARD
  9
$LUNITS
 70
2
  9
$INSUNITS
 70
4
  9
$PEXTMAX
 10
50
 20
50
 30
50
  9
$PEXTMIN
 10
0
 20
0
 30
0
  9
$HANDSEED
  5
FFFF
  0
ENDSEC
  0
SECTION
  2
CLASSES
  0
CLASS
  1
ACDBDICTIONARYWDFLT
  2
AcDbDictionaryWithDefault
  3
ObjectDBX Classes
 90
        0
280
     0
281
     0
  0
CLASS
  1
XRECORD
  2
AcDbXrecord
  3
ObjectDBX Classes
 90
        0
280
     0
281
     0
  0
CLASS
  1
LWPOLYLINE
  2
AcDbPolyline
  3
ObjectDBX Classes
 90
        0
280
     0
281
     1
  0
ENDSEC
  0
SECTION
  2
TABLES
  0
TABLE
  2
VPORT
  5
20
330
0
100
AcDbSymbolTable
 70
     1
  0
VPORT
  5
21
330
20
100
AcDbSymbolTableRecord
100
AcDbViewportTableRecord
  2
*ACTIVE
 70
     0
  0
ENDTAB
  0
TABLE
  2
LTYPE
  5
22
330
0
100
AcDbSymbolTable
 70
     1
  0
LTYPE
  5
23
330
21
100
AcDbSymbolTableRecord
100
AcDbLinetypeTableRecord
  2
BYBLOCK
 70
     0
  3

 72
    65
 73
     0
 40
0.0
  0
LTYPE
  5
24
330
21
100
AcDbSymbolTableRecord
100
AcDbLinetypeTableRecord
  2
BYLAYER
 70
     0
  3

 72
    65
 73
     0
 40
0.0
  0
LTYPE
  5
25
330
21
100
AcDbSymbolTableRecord
100
AcDbLinetypeTableRecord
  2
CONTINUOUS
 70
     0
  3
Solid line
 72
    65
 73
     0
 40
0.0
  0
ENDTAB
  0
TABLE
  2
LAYER
  5
A6E
330
0
100
AcDbSymbolTable
 70
2
  0
LAYER
  5
A6F
330
A6E
100
AcDbSymbolTableRecord
100
AcDbLayerTableRecord
  2
0
 70
   0
 62
   7
  6
CONTINUOUS
  0
LAYER
  5
A70
330
A6E
100
AcDbSymbolTableRecord
100
AcDbLayerTableRecord
  2
View
 70
    0
 62
    7
  6
CONTINUOUS
  0
ENDTAB
  0
TABLE
  2
STYLE
  5
70
330
0
100
AcDbSymbolTable
 70
     2
  0
STYLE
  5
71
330
70
100
AcDbSymbolTableRecord
100
AcDbTextStyleTableRecord
  2
STANDARD
 70
     0
 40
0.0
 41
1.0
 50
0.0
 71
     0
 42
2.5
  3
arial.ttf
  4

  0
STYLE
  5
72
330
70
100
AcDbSymbolTableRecord
100
AcDbTextStyleTableRecord
  2
ANNOTATIVE
 70
     0
 40
0.0
 41
1.0
 50
0.0
 71
     0
 42
2.5
  3
arial.ttf
  4

  0
ENDTAB
  0
TABLE
  2
VIEW
  5
73
330
0
100
AcDbSymbolTable
 70
     0
  0
ENDTAB
  0
TABLE
  2
UCS
  5
74
330
0
100
AcDbSymbolTable
 70
     0
  0
ENDTAB
  0
TABLE
  2
APPID
  5
75
330
0
100
AcDbSymbolTable
 70
     2
  0
APPID
  5
76
330
75
100
AcDbSymbolTableRecord
100
AcDbRegAppTableRecord
  2
ACAD
 70
     0
  0
APPID
  5
77
330
75
100
AcDbSymbolTableRecord
100
AcDbRegAppTableRecord
  2
ACADANNOTATIVE
 70
     0
  0
ENDTAB
  0
TABLE
  2
DIMSTYLE
  5
78
330
0
100
AcDbSymbolTable
 70
     2
  0
DIMSTYLE
105
79
330
78
100
AcDbSymbolTableRecord
100
AcDbDimStyleTableRecord
  2
STANDARD
 70
     0
  3

  4

  5

  6

  7

 40
0.0
 41
2.5
 42
0.625
 43
3.75
 44
1.25
 45
0.0
 46
0.0
 47
0.0
 48
0.0
140
2.5
141
2.5
142
0.0
143
0.03937007874016
144
1.0
145
0.0
146
1.0
147
0.625
 71
     0
 72
     0
 73
     0
 74
     0
 75
     0
 76
     0
 77
     1
 78
     8
170
     0
171
     3
172
     1
173
     0
174
     0
175
     0
176
     0
177
     0
178
     0
270
     2
271
     2
272
     2
273
     2
274
     3
340
71
275
     0
280
     0
281
     0
282
     0
283
     0
284
     8
285
     0
286
     0
287
     3
288
     0
  0
ENDTAB
  0
TABLE
  2
BLOCK_RECORD
  5
A01
330
0
100
AcDbSymbolTable
  70
5
  0
BLOCK_RECORD
  5
A02
330
A01
100
AcDbSymbolTableRecord
100
AcDbBlockTableRecord
  2
*MODEL_SPACE
  0
BLOCK_RECORD
  5
A03
330
A01
100
AcDbSymbolTableRecord
100
AcDbBlockTableRecord
  2
*PAPER_SPACE
  0
ENDTAB
  0
ENDSEC
  0
SECTION
  2
BLOCKS
  0
BLOCK
  5
A04
330
A02
100
AcDbEntity
  8
0
100
AcDbBlockBegin
  2
*MODEL_SPACE
 70
   0
 10
0
 20
0
 30
0
  3
*MODEL_SPACE
  1
 
  0
ENDBLK
  5
A05
330
A02
100
AcDbEntity
  8
0
100
AcDbBlockEnd
  0
BLOCK
  5
A06
330
A03
100
AcDbEntity
 67
1
  8
0
100
AcDbBlockBegin
  2
*PAPER_SPACE
 70
   0
 10
0
 20
0
 30
0
  3
*PAPER_SPACE
  1
 
  0
ENDBLK
  5
A07
330
A03
100
AcDbEntity
 67
    1
  8
0
100
AcDbBlockEnd
  0
ENDSEC
  0
SECTION
  2
ENTITIES
  0
LINE
  5
A08
330
A02
100
AcDbEntity
  8
View
100
AcDbLine
 10
51.366956114
 20
100.444102381
 30
0.000000000
 11
51.366956114
 21
103.586956381
 31
0.000000000
  0
LINE
  5
A09
330
A02
100
AcDbEntity
  8
View
100
AcDbLine
 10
54.652667114
 20
100.444102381
 30
0.000000000
 11
54.652667114
 21
103.586956381
 31
0.000000000
  0
LINE
  5
A0A
330
A02
100
AcDbEntity
  8
View
100
AcDbLine
 10
51.366956114
 20
103.586956381
 30
0.000000000
 11
54.652667114
 21
103.586956381
 31
0.000000000
  0
LINE
  5
A0B
330
A02
100
AcDbEntity
  8
View
100
AcDbLine
 10
57.081236114
 20
100.444102381
 30
0.000000000
 11
58.009806614
 21
100.444102381
 31
0.000000000
  0
LINE
  5
A0C
330
A02
100
AcDbEntity
  8
View
100
AcDbLine
 10
58.009806614
 20
100.444102381
 30
0.000000000
 11
58.009806614
 21
105.586954381
 31
0.000000000
  0
LINE
  5
A0D
330
A02
100
AcDbEntity
  8
View
100
AcDbLine
 10
48.009816614
 20
105.586954381
 30
0.000000000
 11
58.009806614
 21
105.586954381
 31
0.000000000
  0
LINE
  5
A0E
330
A02
100
AcDbEntity
  8
View
100
AcDbLine
 10
48.009816614
 20
100.444102381
 30
0.000000000
 11
48.009816614
 21
105.586954381
 31
0.000000000
  0
LINE
  5
A0F
330
A02
100
AcDbEntity
  8
View
100
AcDbLine
 10
254.223896114
 20
100.444102381
 30
0.000000000
 11
254.223896114
 21
103.586956381
 31
0.000000000
  0
LINE
  5
A10
330
A02
100
AcDbEntity
  8
View
100
AcDbLine
 10
257.509607114
 20
100.444102381
 30
0.000000000
 11
257.509607114
 21
103.586956381
 31
0.000000000
  0
LINE
  5
A11
330
A02
100
AcDbEntity
  8
View
100
AcDbLine
 10
254.223896114
 20
103.586956381
 30
0.000000000
 11
257.509607114
 21
103.586956381
 31
0.000000000
  0
LINE
  5
A12
330
A02
100
AcDbEntity
  8
View
100
AcDbLine
 10
250.866756614
 20
100.444102381
 30
0.000000000
 11
251.795327114
 21
100.444102381
 31
0.000000000
  0
LINE
  5
A13
330
A02
100
AcDbEntity
  8
View
100
AcDbLine
 10
260.866746614
 20
100.444102381
 30
0.000000000
 11
260.866746614
 21
105.586954381
 31
0.000000000
  0
LINE
  5
A14
330
A02
100
AcDbEntity
  8
View
100
AcDbLine
 10
250.866756614
 20
105.586954381
 30
0.000000000
 11
260.866746614
 21
105.586954381
 31
0.000000000
  0
LINE
  5
A15
330
A02
100
AcDbEntity
  8
View
100
AcDbLine
 10
250.866756614
 20
100.444102381
 30
0.000000000
 11
250.866756614
 21
105.586954381
 31
0.000000000
  0
LINE
  5
A16
330
A02
100
AcDbEntity
  8
View
100
AcDbLine
 10
36.581256614
 20
109.015522381
 30
0.000000000
 11
36.581256614
 21
129.872644381
 31
0.000000000
  0
LINE
  5
A17
330
A02
100
AcDbEntity
  8
View
100
AcDbLine
 10
272.295306614
 20
109.015522381
 30
0.000000000
 11
272.295306614
 21
129.872644381
 31
0.000000000
  0
LINE
  5
A18
330
A02
100
AcDbEntity
  8
View
100
AcDbLine
 10
46.009818614
 20
105.586954381
 30
0.000000000
 11
262.866744614
 21
105.586954381
 31
0.000000000
  0
LINE
  5
A19
330
A02
100
AcDbEntity
  8
View
100
AcDbLine
 10
36.581256614
 20
129.872644381
 30
0.000000000
 11
272.295306614
 21
129.872644381
 31
0.000000000
  0
LINE
  5
A1A
330
A02
100
AcDbEntity
  8
View
100
AcDbLine
 10
240.152481614
 20
109.658378881
 30
0.000000000
 11
240.152481614
 21
112.944089881
 31
0.000000000
  0
LINE
  5
A1B
330
A02
100
AcDbEntity
  8
View
100
AcDbLine
 10
211.581081614
 20
109.658378881
 30
0.000000000
 11
240.152481614
 21
109.658378881
 31
0.000000000
  0
LINE
  5
A1C
330
A02
100
AcDbEntity
  8
View
100
AcDbLine
 10
240.152481614
 20
112.944089881
 30
0.000000000
 11
211.581081614
 21
112.944089881
 31
0.000000000
  0
CIRCLE
  5
A1D
330
A02
100
AcDbEntity
  8
View
100
AcDbCircle
 10
236.509628114
 20
111.301234381
 30
0.000000000
 40
0.785713500
  0
CIRCLE
  5
A1E
330
A02
100
AcDbEntity
  8
View
100
AcDbCircle
 10
227.884636739
 20
111.301234381
 30
0.000000000
 40
0.785713500
  0
CIRCLE
  5
A1F
330
A02
100
AcDbEntity
  8
View
100
AcDbCircle
 10
219.259645364
 20
111.301234381
 30
0.000000000
 40
0.785713500
  0
LINE
  5
A20
330
A02
100
AcDbEntity
  8
View
100
AcDbLine
 10
211.581081614
 20
106.301239381
 30
0.000000000
 11
211.581081614
 21
116.301229381
 31
0.000000000
  0
CIRCLE
  5
A21
330
A02
100
AcDbEntity
  8
View
100
AcDbCircle
 10
236.509628114
 20
111.301234381
 30
0.000000000
 40
0.499999500
  0
CIRCLE
  5
A22
330
A02
100
AcDbEntity
  8
View
100
AcDbCircle
 10
227.884636739
 20
111.301234381
 30
0.000000000
 40
0.499999500
  0
CIRCLE
  5
A23
330
A02
100
AcDbEntity
  8
View
100
AcDbCircle
 10
219.259645364
 20
111.301234381
 30
0.000000000
 40
0.499999500
  0
LINE
  5
A24
330
A02
100
AcDbEntity
  8
View
100
AcDbLine
 10
211.581081614
 20
116.301229381
 30
0.000000000
 11
199.581093614
 21
116.301229381
 31
0.000000000
  0
LINE
  5
A25
330
A02
100
AcDbEntity
  8
View
100
AcDbLine
 10
199.581093614
 20
116.301229381
 30
0.000000000
 11
199.581093614
 21
106.301239381
 31
0.000000000
  0
LINE
  5
A26
330
A02
100
AcDbEntity
  8
View
100
AcDbLine
 10
199.581093614
 20
106.301239381
 30
0.000000000
 11
211.581081614
 21
106.301239381
 31
0.000000000
  0
LINE
  5
A27
330
A02
100
AcDbEntity
  8
View
100
AcDbLine
 10
195.009669614
 20
109.658378881
 30
0.000000000
 11
199.581093614
 21
109.658378881
 31
0.000000000
  0
LINE
  5
A28
330
A02
100
AcDbEntity
  8
View
100
AcDbLine
 10
199.581093614
 20
112.944089881
 30
0.000000000
 11
195.009669614
 21
112.944089881
 31
0.000000000
  0
LINE
  5
A29
330
A02
100
AcDbEntity
  8
View
100
AcDbLine
 10
195.009669614
 20
106.301239381
 30
0.000000000
 11
195.009669614
 21
116.301229381
 31
0.000000000
  0
LINE
  5
A2A
330
A02
100
AcDbEntity
  8
View
100
AcDbLine
 10
195.009669614
 20
116.301229381
 30
0.000000000
 11
183.009681614
 21
116.301229381
 31
0.000000000
  0
LINE
  5
A2B
330
A02
100
AcDbEntity
  8
View
100
AcDbLine
 10
183.009681614
 20
116.301229381
 30
0.000000000
 11
183.009681614
 21
106.301239381
 31
0.000000000
  0
LINE
  5
A2C
330
A02
100
AcDbEntity
  8
View
100
AcDbLine
 10
183.009681614
 20
106.301239381
 30
0.000000000
 11
195.009669614
 21
106.301239381
 31
0.000000000
  0
LINE
  5
A2D
330
A02
100
AcDbEntity
  8
View
100
AcDbLine
 10
68.724081614
 20
109.658378881
 30
0.000000000
 11
183.009681614
 21
109.658378881
 31
0.000000000
  0
LINE
  5
A2E
330
A02
100
AcDbEntity
  8
View
100
AcDbLine
 10
68.724081614
 20
112.944089881
 30
0.000000000
 11
68.724081614
 21
109.658378881
 31
0.000000000
  0
LINE
  5
A2F
330
A02
100
AcDbEntity
  8
View
100
AcDbLine
 10
183.009681614
 20
112.944089881
 30
0.000000000
 11
68.724081614
 21
112.944089881
 31
0.000000000
  0
CIRCLE
  5
A30
330
A02
100
AcDbEntity
  8
View
100
AcDbCircle
 10
176.134688489
 20
111.301234381
 30
0.000000000
 40
0.499999500
  0
CIRCLE
  5
A31
330
A02
100
AcDbEntity
  8
View
100
AcDbCircle
 10
167.509697114
 20
111.301234381
 30
0.000000000
 40
0.499999500
  0
CIRCLE
  5
A32
330
A02
100
AcDbEntity
  8
View
100
AcDbCircle
 10
158.884705739
 20
111.301234381
 30
0.000000000
 40
0.499999500
  0
CIRCLE
  5
A33
330
A02
100
AcDbEntity
  8
View
100
AcDbCircle
 10
150.259714364
 20
111.301234381
 30
0.000000000
 40
0.499999500
  0
CIRCLE
  5
A34
330
A02
100
AcDbEntity
  8
View
100
AcDbCircle
 10
141.634722989
 20
111.301234381
 30
0.000000000
 40
0.499999500
  0
CIRCLE
  5
A35
330
A02
100
AcDbEntity
  8
View
100
AcDbCircle
 10
133.009731614
 20
111.301234381
 30
0.000000000
 40
0.499999500
  0
CIRCLE
  5
A36
330
A02
100
AcDbEntity
  8
View
100
AcDbCircle
 10
124.384740239
 20
111.301234381
 30
0.000000000
 40
0.499999500
  0
CIRCLE
  5
A37
330
A02
100
AcDbEntity
  8
View
100
AcDbCircle
 10
115.759748864
 20
111.301234381
 30
0.000000000
 40
0.499999500
  0
CIRCLE
  5
A38
330
A02
100
AcDbEntity
  8
View
100
AcDbCircle
 10
107.134757489
 20
111.301234381
 30
0.000000000
 40
0.499999500
  0
CIRCLE
  5
A39
330
A02
100
AcDbEntity
  8
View
100
AcDbCircle
 10
98.509766114
 20
111.301234381
 30
0.000000000
 40
0.499999500
  0
CIRCLE
  5
A3A
330
A02
100
AcDbEntity
  8
View
100
AcDbCircle
 10
89.884774739
 20
111.301234381
 30
0.000000000
 40
0.499999500
  0
CIRCLE
  5
A3B
330
A02
100
AcDbEntity
  8
View
100
AcDbCircle
 10
81.259783364
 20
111.301234381
 30
0.000000000
 40
0.499999500
  0
CIRCLE
  5
A3C
330
A02
100
AcDbEntity
  8
View
100
AcDbCircle
 10
72.634791989
 20
111.301234381
 30
0.000000000
 40
0.499999500
  0
CIRCLE
  5
A3D
330
A02
100
AcDbEntity
  8
View
100
AcDbCircle
 10
176.134688489
 20
111.301234381
 30
0.000000000
 40
0.785713500
  0
CIRCLE
  5
A3E
330
A02
100
AcDbEntity
  8
View
100
AcDbCircle
 10
167.509697114
 20
111.301234381
 30
0.000000000
 40
0.785713500
  0
CIRCLE
  5
A3F
330
A02
100
AcDbEntity
  8
View
100
AcDbCircle
 10
158.884705739
 20
111.301234381
 30
0.000000000
 40
0.785713500
  0
CIRCLE
  5
A40
330
A02
100
AcDbEntity
  8
View
100
AcDbCircle
 10
150.259714364
 20
111.301234381
 30
0.000000000
 40
0.785713500
  0
CIRCLE
  5
A41
330
A02
100
AcDbEntity
  8
View
100
AcDbCircle
 10
141.634722989
 20
111.301234381
 30
0.000000000
 40
0.785713500
  0
CIRCLE
  5
A42
330
A02
100
AcDbEntity
  8
View
100
AcDbCircle
 10
133.009731614
 20
111.301234381
 30
0.000000000
 40
0.785713500
  0
CIRCLE
  5
A43
330
A02
100
AcDbEntity
  8
View
100
AcDbCircle
 10
124.384740239
 20
111.301234381
 30
0.000000000
 40
0.785713500
  0
CIRCLE
  5
A44
330
A02
100
AcDbEntity
  8
View
100
AcDbCircle
 10
115.759748864
 20
111.301234381
 30
0.000000000
 40
0.785713500
  0
CIRCLE
  5
A45
330
A02
100
AcDbEntity
  8
View
100
AcDbCircle
 10
107.134757489
 20
111.301234381
 30
0.000000000
 40
0.785713500
  0
CIRCLE
  5
A46
330
A02
100
AcDbEntity
  8
View
100
AcDbCircle
 10
98.509766114
 20
111.301234381
 30
0.000000000
 40
0.785713500
  0
CIRCLE
  5
A47
330
A02
100
AcDbEntity
  8
View
100
AcDbCircle
 10
89.884774739
 20
111.301234381
 30
0.000000000
 40
0.785713500
  0
CIRCLE
  5
A48
330
A02
100
AcDbEntity
  8
View
100
AcDbCircle
 10
81.259783364
 20
111.301234381
 30
0.000000000
 40
0.785713500
  0
CIRCLE
  5
A49
330
A02
100
AcDbEntity
  8
View
100
AcDbCircle
 10
72.634791989
 20
111.301234381
 30
0.000000000
 40
0.785713500
  0
LINE
  5
A4A
330
A02
100
AcDbEntity
  8
View
100
AcDbLine
 10
39.581253614
 20
100.444102381
 30
0.000000000
 11
39.581253614
 21
103.301242381
 31
0.000000000
  0
LINE
  5
A4B
330
A02
100
AcDbEntity
  8
View
100
AcDbLine
 10
42.438393614
 20
100.444102381
 30
0.000000000
 11
42.438393614
 21
103.301242381
 31
0.000000000
  0
LINE
  5
A4C
330
A02
100
AcDbEntity
  8
View
100
AcDbLine
 10
39.581253614
 20
103.301242381
 30
0.000000000
 11
42.438393614
 21
103.301242381
 31
0.000000000
  0
LINE
  5
A4D
330
A02
100
AcDbEntity
  8
View
100
AcDbLine
 10
46.009818614
 20
100.444102381
 30
0.000000000
 11
46.009818614
 21
109.015522381
 31
0.000000000
  0
LINE
  5
A4E
330
A02
100
AcDbEntity
  8
View
100
AcDbLine
 10
36.009828614
 20
109.015522381
 30
0.000000000
 11
46.009818614
 21
109.015522381
 31
0.000000000
  0
LINE
  5
A4F
330
A02
100
AcDbEntity
  8
View
100
AcDbLine
 10
36.009828614
 20
100.444102381
 30
0.000000000
 11
36.009828614
 21
109.015522381
 31
0.000000000
  0
LINE
  5
A50
330
A02
100
AcDbEntity
  8
View
100
AcDbLine
 10
266.438169614
 20
100.444102381
 30
0.000000000
 11
266.438169614
 21
103.301242381
 31
0.000000000
  0
LINE
  5
A51
330
A02
100
AcDbEntity
  8
View
100
AcDbLine
 10
269.295309614
 20
100.444102381
 30
0.000000000
 11
269.295309614
 21
103.301242381
 31
0.000000000
  0
LINE
  5
A52
330
A02
100
AcDbEntity
  8
View
100
AcDbLine
 10
266.438169614
 20
103.301242381
 30
0.000000000
 11
269.295309614
 21
103.301242381
 31
0.000000000
  0
LINE
  5
A53
330
A02
100
AcDbEntity
  8
View
100
AcDbLine
 10
272.866734614
 20
100.444102381
 30
0.000000000
 11
272.866734614
 21
109.015522381
 31
0.000000000
  0
LINE
  5
A54
330
A02
100
AcDbEntity
  8
View
100
AcDbLine
 10
262.866744614
 20
109.015522381
 30
0.000000000
 11
272.866734614
 21
109.015522381
 31
0.000000000
  0
LINE
  5
A55
330
A02
100
AcDbEntity
  8
View
100
AcDbLine
 10
262.866744614
 20
100.444102381
 30
0.000000000
 11
262.866744614
 21
109.015522381
 31
0.000000000
  0
LINE
  5
A56
330
A02
100
AcDbEntity
  8
View
100
AcDbLine
 10
253.723896614
 20
117.944084881
 30
0.000000000
 11
253.723896614
 21
127.944074881
 31
0.000000000
  0
LINE
  5
A57
330
A02
100
AcDbEntity
  8
View
100
AcDbLine
 10
253.723896614
 20
127.944074881
 30
0.000000000
 11
238.723911614
 21
127.944074881
 31
0.000000000
  0
LINE
  5
A58
330
A02
100
AcDbEntity
  8
View
100
AcDbLine
 10
238.723911614
 20
127.944074881
 30
0.000000000
 11
238.723911614
 21
117.944084881
 31
0.000000000
  0
LINE
  5
A59
330
A02
100
AcDbEntity
  8
View
100
AcDbLine
 10
238.723911614
 20
117.944084881
 30
0.000000000
 11
253.723896614
 21
117.944084881
 31
0.000000000
  0
LINE
  5
A5A
330
A02
100
AcDbEntity
  8
View
100
AcDbLine
 10
238.723911614
 20
124.372649881
 30
0.000000000
 11
199.438236614
 21
124.372649881
 31
0.000000000
  0
LINE
  5
A5B
330
A02
100
AcDbEntity
  8
View
100
AcDbLine
 10
199.438236614
 20
121.515509881
 30
0.000000000
 11
238.723911614
 21
121.515509881
 31
0.000000000
  0
LINE
  5
A5C
330
A02
100
AcDbEntity
  8
View
100
AcDbLine
 10
199.438236614
 20
118.515512881
 30
0.000000000
 11
199.438236614
 21
127.372646881
 31
0.000000000
  0
LINE
  5
A5D
330
A02
100
AcDbEntity
  8
View
100
AcDbLine
 10
193.723956614
 20
118.515512881
 30
0.000000000
 11
199.438236614
 21
118.515512881
 31
0.000000000
  0
LINE
  5
A5E
330
A02
100
AcDbEntity
  8
View
100
AcDbLine
 10
193.723956614
 20
127.372646881
 30
0.000000000
 11
193.723956614
 21
118.515512881
 31
0.000000000
  0
LINE
  5
A5F
330
A02
100
AcDbEntity
  8
View
100
AcDbLine
 10
193.723956614
 20
124.372649881
 30
0.000000000
 11
62.724087614
 21
124.372649881
 31
0.000000000
  0
LINE
  5
A60
330
A02
100
AcDbEntity
  8
View
100
AcDbLine
 10
62.724087614
 20
121.515509881
 30
0.000000000
 11
193.723956614
 21
121.515509881
 31
0.000000000
  0
LINE
  5
A61
330
A02
100
AcDbEntity
  8
View
100
AcDbLine
 10
199.438236614
 20
127.372646881
 30
0.000000000
 11
193.723956614
 21
127.372646881
 31
0.000000000
  0
LINE
  5
A62
330
A02
100
AcDbEntity
  8
View
100
AcDbLine
 10
62.724087614
 20
127.229789881
 30
0.000000000
 11
62.724087614
 21
118.658369881
 31
0.000000000
  0
LINE
  5
A63
330
A02
100
AcDbEntity
  8
View
100
AcDbLine
 10
58.438377614
 20
118.658369881
 30
0.000000000
 11
58.438377614
 21
127.229789881
 31
0.000000000
  0
LINE
  5
A64
330
A02
100
AcDbEntity
  8
View
100
AcDbLine
 10
58.438377614
 20
127.229789881
 30
0.000000000
 11
62.724087614
 21
127.229789881
 31
0.000000000
  0
LINE
  5
A65
330
A02
100
AcDbEntity
  8
View
100
AcDbLine
 10
62.724087614
 20
118.658369881
 30
0.000000000
 11
58.438377614
 21
118.658369881
 31
0.000000000
  0
LINE
  5
A66
330
A02
100
AcDbEntity
  8
View
100
AcDbLine
 10
34.224116114
 20
100.444102381
 30
0.000000000
 11
34.224116114
 21
89.015542381
 31
0.000000000
  0
LINE
  5
A67
330
A02
100
AcDbEntity
  8
View
100
AcDbLine
 10
57.081236114
 20
100.444102381
 30
0.000000000
 11
57.081236114
 21
89.015542381
 31
0.000000000
  0
LINE
  5
A68
330
A02
100
AcDbEntity
  8
View
100
AcDbLine
 10
34.224116114
 20
100.444102381
 30
0.000000000
 11
57.081236114
 21
100.444102381
 31
0.000000000
  0
LINE
  5
A69
330
A02
100
AcDbEntity
  8
View
100
AcDbLine
 10
34.224116114
 20
89.015542381
 30
0.000000000
 11
57.081236114
 21
89.015542381
 31
0.000000000
  0
LINE
  5
A6A
330
A02
100
AcDbEntity
  8
View
100
AcDbLine
 10
251.795327114
 20
100.444102381
 30
0.000000000
 11
251.795327114
 21
89.015542381
 31
0.000000000
  0
LINE
  5
A6B
330
A02
100
AcDbEntity
  8
View
100
AcDbLine
 10
274.652447114
 20
100.444102381
 30
0.000000000
 11
274.652447114
 21
89.015542381
 31
0.000000000
  0
LINE
  5
A6C
330
A02
100
AcDbEntity
  8
View
100
AcDbLine
 10
251.795327114
 20
100.444102381
 30
0.000000000
 11
274.652447114
 21
100.444102381
 31
0.000000000
  0
LINE
  5
A6D
330
A02
100
AcDbEntity
  8
View
100
AcDbLine
 10
251.795327114
 20
89.015542381
 30
0.000000000
 11
274.652447114
 21
89.015542381
 31
0.000000000
  0
ENDSEC
  0
SECTION
  2
OBJECTS
  0
DICTIONARY
  5
F000
330
0
100
AcDbDictionary
  3
ACAD_GROUP
350
F001
  0
DICTIONARY
  5
F001
330
F000
100
AcDbDictionary
  0
ENDSEC
  0
EOF